<?xml version="1.0" encoding="utf-8"?>
<!-- Generator: Adobe Illustrator 25.4.1, SVG Export Plug-In . SVG Version: 6.00 Build 0)  -->
<svg version="1.1" id="Layer_1" xmlns="http://www.w3.org/2000/svg" xmlns:xlink="http://www.w3.org/1999/xlink" x="0px" y="0px"
	 viewBox="0 0 801 549" style="enable-background:new 0 0 801 549;" xml:space="preserve">
<style type="text/css">
	.st0{fill:#85AD38;}
	.st1{fill:#607D28;}
	.st2{fill:#ACBC4F;}
	.st3{fill:#799E33;}
	.st4{fill:#FF7C6D;}
	.st5{fill:#4F2832;}
	.st6{fill:#FFFFFF;}
	.st7{fill:#5E2D38;}
	.st8{fill:#DE435E;}
	.st9{clip-path:url(#SVGID_00000113331574861720748220000002999639212875916730_);}
	.st10{clip-path:url(#SVGID_00000170974161707664179230000000774675161452687525_);}
	.st11{fill:#FF6A59;}
	.st12{fill:#B4B2B5;}
	.st13{fill:#8D8196;}
	.st14{fill:#D94359;}
	.st15{fill:#F24C64;}
	.st16{fill:#FFA639;}
	.st17{fill:#4D3037;}
	.st18{fill:#A85C45;}
	.st19{fill:#381D25;}
	.st20{clip-path:url(#SVGID_00000067936194193471832190000014306687417858711206_);}
	.st21{clip-path:url(#SVGID_00000114059869029558158760000012911428452954196885_);}
	.st22{fill:#8F4040;}
	.st23{clip-path:url(#SVGID_00000029746831040875747710000009198639728606361730_);}
	.st24{clip-path:url(#SVGID_00000059291003433846501740000014230447446569967267_);}
	.st25{fill:#4D78BF;}
	.st26{fill:#5C90E6;}
	.st27{fill:#F4F6FA;}
	.st28{fill:#CACCDE;}
	.st29{fill:#304975;}
	.st30{fill:#9CB8E6;}
	.st31{fill:#3D3D3D;}
</style>
<g>
	<g>
		<g>
			<g>
				<g>
					<g>
						<path class="st0" d="M45.5,271.4c27.6-18.3,35.8,27.6,55.9,28.5c20.1,0.9,38.3,17.4,42.6,39.5c4.3,22.1,3.8,27,35.9,41.9
							c32.1,14.9,26.3,41.7,27.6,54.1c1.3,12.4,50.7,52.4,16.9,104l-109.6-0.6c-27.3-11.2-48-78.1-45.8-116.8
							c2.2-38.7-25.5-48.3-20-79.8C54.6,310.7,31.3,285.8,45.5,271.4z"/>
					</g>
				</g>
			</g>
			<g>
				<g>
					<g>
						<path class="st1" d="M169.3,402.2c-0.1-0.8-0.8-1.4-1.6-1.3c-0.8,0.1-1.4,0.8-1.3,1.6c2.1,18.5-9.2,34.9-18,38.3
							C133.6,411,113.1,371.7,91,334.7c1.1-2.2,4.1-9.3,2.6-20c-0.1-0.8-0.9-1.4-1.7-1.3c-0.8,0.1-1.4,0.9-1.3,1.7
							c1,7.8-0.4,13.5-1.6,16.5c-9.6-15.8-19.4-31.2-29.2-45c-0.5-0.7-1.4-0.8-2.1-0.4c-0.7,0.5-0.8,1.4-0.4,2.1
							c20.1,28.4,40.3,63,58,95.5c-5.2,1.5-22.8,1.4-29.2-6.4c-0.5-0.6-1.5-0.7-2.1-0.2c-0.6,0.5-0.7,1.5-0.2,2.1
							c7.2,8.7,25.1,8.9,31.9,7.4c0.4-0.1,0.7-0.2,1-0.3c29.9,55.3,71.8,146.6,72.1,147.3c0.3,0.7,1,1,1.7,0.8
							c0.1,0,0.2-0.1,0.3-0.1c0.7-0.3,1.1-1.2,0.7-2c-0.2-0.5-28.6-61.8-42-89C160.8,439.1,171.5,420.7,169.3,402.2z"/>
					</g>
				</g>
			</g>
		</g>
		<g>
			<g>
				<g>
					<g>
						<path class="st2" d="M11.7,407c12.2-11.9,20.7,10.5,30.9,9c10.2-1.5,21,5.1,25.2,15.9c4.3,10.7,4.5,13.2,22.1,17.7
							c17.6,4.4,14.6,20.1,19.1,24.6c11.2,11.3,32.8,31.2,25.7,53.7l-4.8,11.2l-49.4,0.6c-14.8-3-41.2-21.8-42.6-58.9
							c-0.7-19.9-17.5-21.9-17.7-38.3S6,415.6,11.7,407z"/>
					</g>
				</g>
			</g>
			<g>
				<g>
					<g>
						<path class="st3" d="M86.7,461c-0.1-0.4-0.6-0.6-1-0.5c-0.4,0.1-0.6,0.6-0.5,1c2.9,9.1-1.3,18.5-5.4,21
							c-10.3-13.6-24.4-31.5-39.1-48c0.3-1.2,1.2-5.1-0.6-10.3c-0.1-0.4-0.6-0.6-1-0.5c-0.4,0.1-0.6,0.6-0.5,1
							c1.3,3.8,1.1,6.8,0.8,8.4c-6.3-7.1-12.8-13.9-19-19.9c-0.3-0.3-0.8-0.3-1.1,0c-0.3,0.3-0.3,0.8,0,1.1
							c12.8,12.4,26.4,27.9,38.4,42.6c-2.5,1.2-11.4,2.9-15.3-0.4c-0.3-0.3-0.8-0.2-1.1,0.1c-0.3,0.3-0.2,0.8,0.1,1.1
							c4.5,3.7,13.5,2.1,16.8,0.7c0.2-0.1,0.3-0.2,0.5-0.2c20.3,25,55.2,74.2,55.5,74.6c0.2,0.3,0.6,0.4,0.9,0.3c0,0,0.1,0,0.1-0.1
							c0.3-0.2,0.4-0.7,0.2-1.1c-0.2-0.2-25.3-35.7-34.7-48.1C85.9,480.5,89.6,470.2,86.7,461z"/>
					</g>
				</g>
			</g>
		</g>
	</g>
	<g>
		<g>
			<g>
				<g>
					<g>
						<path class="st0" d="M753.7,266c-28.2-18.7-36.5,28.1-57.1,29c-20.5,0.9-39,17.8-43.4,40.3c-4.4,22.5-3.9,27.5-36.7,42.7
							c-32.7,15.2-26.9,42.5-28.2,55.2c-1.3,12.7-51.8,53.4-17.3,106l111.8-0.6c27.8-11.4,48.9-79.6,46.7-119.1s26-49.2,20.4-81.4
							C744.5,306.1,768.2,280.7,753.7,266z"/>
					</g>
				</g>
			</g>
			<g>
				<g>
					<g>
						<path class="st1" d="M627.4,399.4c0.1-0.8,0.8-1.4,1.7-1.3c0.8,0.1,1.4,0.8,1.3,1.7c-2.2,18.9,9.4,35.6,18.4,39.1
							c15.1-30.4,36-70.5,58.5-108.2c-1.1-2.2-4.1-9.5-2.7-20.4c0.1-0.8,0.9-1.4,1.7-1.3c0.8,0.1,1.4,0.9,1.3,1.7
							c-1.1,7.9,0.5,13.7,1.6,16.8c9.7-16.2,19.8-31.8,29.8-45.9c0.5-0.7,1.4-0.8,2.1-0.4c0.7,0.5,0.8,1.4,0.4,2.1
							c-20.5,29-41.1,64.3-59.1,97.4c5.3,1.5,23.3,1.4,29.8-6.5c0.5-0.6,1.5-0.7,2.1-0.2c0.6,0.5,0.7,1.5,0.2,2.1
							c-7.3,8.9-25.6,9.1-32.6,7.5c-0.4-0.1-0.7-0.2-1-0.3c-30.5,56.4-73.2,149.5-73.6,150.3c-0.3,0.7-1,1-1.7,0.9
							c-0.1,0-0.2-0.1-0.3-0.1c-0.8-0.3-1.1-1.2-0.8-2c0.2-0.5,29.1-63.1,42.9-90.8C636.1,437.1,625.2,418.3,627.4,399.4z"/>
					</g>
				</g>
			</g>
		</g>
		<g>
			<g>
				<g>
					<g>
						<path class="st2" d="M788.2,404.3c-12.4-12.1-21.1,10.7-31.5,9.2c-10.4-1.5-21.4,5.2-25.7,16.2c-4.4,10.9-4.6,13.5-22.6,18
							c-18,4.5-14.9,20.5-19.5,25.1c-11.4,11.6-33.5,31.8-26.3,54.8l4.9,11.4l50.4,0.6c15.1-3.1,42.1-22.2,43.5-60.1
							c0.8-20.3,17.8-22.3,18.1-39.1C779.6,423.6,794,413.1,788.2,404.3z"/>
					</g>
				</g>
			</g>
			<g>
				<g>
					<g>
						<path class="st3" d="M711.7,459.5c0.1-0.4,0.6-0.6,1-0.5c0.4,0.1,0.6,0.6,0.5,1c-2.9,9.3,1.3,18.8,5.5,21.5
							c10.5-13.9,24.9-32.1,39.9-48.9c-0.3-1.2-1.2-5.2,0.6-10.5c0.1-0.4,0.6-0.6,1-0.5c0.4,0.1,0.6,0.6,0.5,1
							c-1.3,3.9-1.1,7-0.8,8.6c6.5-7.2,13-14.1,19.4-20.3c0.3-0.3,0.8-0.3,1.1,0c0.3,0.3,0.3,0.8,0,1.1
							c-13.1,12.7-26.9,28.5-39.1,43.5c2.5,1.3,11.6,2.9,15.6-0.4c0.3-0.3,0.8-0.2,1.1,0.1c0.3,0.3,0.2,0.8-0.1,1.1
							c-4.5,3.8-13.8,2.1-17.1,0.7c-0.2-0.1-0.3-0.2-0.5-0.2c-20.8,25.5-56.3,75.7-56.6,76.1c-0.2,0.3-0.6,0.4-0.9,0.3
							c0,0-0.1,0-0.1-0.1c-0.4-0.2-0.4-0.7-0.2-1.1c0.2-0.2,25.8-36.4,35.4-49.1C712.5,479.3,708.8,468.8,711.7,459.5z"/>
					</g>
				</g>
			</g>
		</g>
	</g>
	<g>
		<g>
			<g>
				<g>
					<path class="st4" d="M394.1,251.5c32.8,17,46.2,21.2,46.2,21.2c28.5-13.5,56.7-11,56.7-11l-22.6,20.7l-31.1,25.1
						c-0.8,0.6-1.6,1.2-2.4,1.7c-0.7,0.4-1.4,0.8-2.1,1.2l0,0c-3.7,2-7.8,3.1-11.9,3.3c-4.1,0.2-8.3-0.5-12.2-2.2l-40.2-16.8
						L394.1,251.5z"/>
				</g>
			</g>
		</g>
		<g>
			<g>
				<g>
					<path class="st5" d="M439.1,310.8c-3.7,2-7.9,3.1-12.1,3.3c-4.2,0.2-8.5-0.6-12.3-2.2l-40.2-16.8c-0.1,0-0.2-0.1-0.2-0.2
						c0-0.1,0-0.2,0-0.3l19.5-43.2c0-0.1,0.1-0.2,0.2-0.2c0.1,0,0.2,0,0.3,0c30.7,15.8,44.5,20.6,46,21.1
						c28.3-13.3,56.5-11,56.8-10.9c0.1,0,0.3,0.1,0.3,0.3c0,0.1,0,0.3-0.1,0.4l-22.7,20.7l-31.1,25.1c-0.8,0.6-1.6,1.2-2.4,1.8
						c-0.4,0.2-0.8,0.5-1.2,0.7C439.7,310.4,439.4,310.6,439.1,310.8z M440.5,273c-0.1,0-0.2,0-0.3,0c-0.1,0-13.7-4.4-45.9-21
						l-19.2,42.5l39.9,16.7c3.8,1.6,7.9,2.3,12,2.1c4.1-0.2,8.1-1.3,11.8-3.2c0.7-0.4,1.4-0.8,2-1.2c0.8-0.5,1.6-1.1,2.4-1.7
						l31-25.1l22-20.1C491.2,261.8,465.8,261.1,440.5,273z M440.3,272.7L440.3,272.7L440.3,272.7z"/>
				</g>
			</g>
		</g>
		<g>
			<g>
				<g>
					<g>
						<path class="st6" d="M376.5,303.8l22.5-55.3c-38.4-10.2-66.9-8.2-76.6,11.2C312.7,279,351.2,295.7,376.5,303.8z"/>
					</g>
				</g>
			</g>
			<g>
				<g>
					<g>
						<path class="st0" d="M376.5,303.8l22.5-55.3c-3.9-1-7.7-1.9-11.4-2.7l-25.1,53.1C367.4,300.7,372.1,302.4,376.5,303.8z"/>
					</g>
				</g>
			</g>
			<g>
				<g>
					<g>
						<path class="st5" d="M376.7,304.1c0.1,0,0.1-0.1,0.2-0.2l22.5-55.3c0-0.1,0-0.2,0-0.3c0-0.1-0.1-0.2-0.2-0.2
							c-41.2-10.9-67.8-7-77,11.4c-0.1,0.2,0,0.4,0.2,0.5c0.2,0.1,0.4,0,0.5-0.2c9-18,35.2-21.8,75.7-11.1l-22.2,54.6
							c-7.5-2.4-18.4-6.3-28.6-11.4c-0.2-0.1-0.4,0-0.5,0.2c-0.1,0.2,0,0.4,0.2,0.5c10.4,5.2,21.5,9.1,29.1,11.5
							C376.5,304.2,376.6,304.1,376.7,304.1z"/>
					</g>
				</g>
			</g>
		</g>
		<g>
			<g>
				<g>
					<g>
						<polygon class="st4" points="265.9,493.2 254.8,540.3 299.2,540.3 316.3,494.4 						"/>
					</g>
				</g>
			</g>
			<g>
				<g>
					<g>
						<path class="st5" d="M299.2,540.7h-44.4c-0.1,0-0.2-0.1-0.3-0.1c-0.1-0.1-0.1-0.2-0.1-0.3l11.1-47.1c0-0.2,0.2-0.3,0.4-0.3
							l50.4,1.2c0.1,0,0.2,0.1,0.3,0.2c0.1,0.1,0.1,0.2,0,0.3l-17.1,45.9C299.5,540.6,299.3,540.7,299.2,540.7z M255.3,539.9h43.6
							l16.8-45.1l-49.5-1.2L255.3,539.9z"/>
					</g>
				</g>
			</g>
			<g>
				<g>
					<g>
						<g>
							<polygon class="st4" points="343.3,493.2 355.2,540.3 399.6,540.3 393.7,494.4 							"/>
						</g>
					</g>
				</g>
				<g>
					<g>
						<g>
							<path class="st5" d="M399.6,540.7h-44.4c-0.2,0-0.3-0.1-0.4-0.3l-11.9-47.1c0-0.1,0-0.2,0.1-0.3c0.1-0.1,0.2-0.1,0.3-0.1
								l50.4,1.2c0.2,0,0.3,0.1,0.4,0.3l5.9,45.9c0,0.1,0,0.2-0.1,0.3C399.8,540.6,399.7,540.7,399.6,540.7z M355.5,539.9h43.7
								l-5.8-45.1l-49.6-1.2L355.5,539.9z"/>
						</g>
					</g>
				</g>
			</g>
			<g>
				<g>
					<g>
						<path class="st0" d="M280.9,368.4c-23.4,74.4-27,133.2-27,133.2h69l18-48l-0.6,49.2l68.4-3c-3.6-106.8-29.4-162-29.4-162
							l-75,9L280.9,368.4z"/>
					</g>
				</g>
			</g>
			<g>
				<g>
					<g>
						<path class="st5" d="M340.2,503.2c-0.1,0-0.2,0-0.3-0.1c-0.1-0.1-0.1-0.2-0.1-0.3l0.6-47l-17.2,45.9c-0.1,0.1-0.2,0.2-0.4,0.2
							h-69c-0.1,0-0.2,0-0.3-0.1c-0.1-0.1-0.1-0.2-0.1-0.3c0-0.6,3.9-59.7,27-133.3c0-0.1,0.1-0.1,0.1-0.2l23.4-21.6
							c0.1-0.1,0.1-0.1,0.2-0.1l75-9c0.2,0,0.3,0.1,0.4,0.2c0.3,0.6,25.9,56.5,29.4,162.1c0,0.2-0.2,0.4-0.4,0.4L340.2,503.2
							C340.2,503.2,340.2,503.2,340.2,503.2z M340.8,453.2C340.8,453.2,340.9,453.2,340.8,453.2c0.3,0,0.4,0.2,0.4,0.4l-0.6,48.8
							l67.6-3c-3.5-101.6-27.4-157-29.2-161.2l-74.6,9l-23.2,21.4c-22.1,70.2-26.5,127.2-26.9,132.6h68.3l17.9-47.7
							C340.5,453.3,340.7,453.2,340.8,453.2z"/>
					</g>
				</g>
			</g>
			<g>
				<g>
					<g>
						<path class="st5" d="M340.8,454c0,0-0.1,0-0.1,0c-0.2-0.1-0.3-0.3-0.2-0.5c10.1-29,16.2-66.7,16.2-67.1c0-0.1,0.1-0.3,0.3-0.3
							l7-2.3l2.4-17.2c0-0.2,0.2-0.4,0.4-0.3c0.2,0,0.4,0.2,0.3,0.4l-2.4,17.4c0,0.1-0.1,0.3-0.3,0.3l-7,2.3
							c-0.5,3.2-6.5,39.1-16.2,67C341.1,453.9,341,454,340.8,454z"/>
					</g>
				</g>
			</g>
		</g>
		<g>
			<g>
				<g>
					<path class="st6" d="M309.4,236.1c-25.8,0.5-35.3,9.6-35.3,9.6l-2,127.7c0,0,48.6-7.5,50.2-8.3c1.6-0.8,66.8-9.5,66.8-9.5
						c-2.4-54.6-27.3-108.4-30.1-111.5c-2.8-3.2-24.8-6.8-24.8-6.8L309.4,236.1z"/>
				</g>
			</g>
		</g>
		<g>
			<g>
				<g>
					<path class="st5" d="M272.2,373.9C272.2,373.9,272.2,373.8,272.2,373.9c5-0.8,48.8-7.6,50.4-8.3c1.5-0.7,48.7-7.1,66.7-9.5
						c0.2,0,0.3-0.2,0.3-0.4c-1.3-29.9-9.3-58.7-15.8-77.7c-0.1-0.2-0.3-0.3-0.5-0.2c-0.2,0.1-0.3,0.3-0.2,0.5
						c6.4,18.8,14.4,47.5,15.7,77.2c-8.1,1.1-65,8.7-66.6,9.5c-1.2,0.6-30.2,5.2-49.7,8.2l2-127.1c1.2-1,11.1-8.9,34.9-9.4l25,1.2
						c7.5,1.3,22.4,4.3,24.5,6.7c0.1,0.2,0.4,0.2,0.5,0c0.2-0.1,0.2-0.4,0-0.5c-2.8-3.2-24.1-6.8-25-7l-25-1.2
						c-25.7,0.5-35.2,9.3-35.5,9.7c-0.1,0.1-0.1,0.2-0.1,0.3l-2,127.7c0,0.1,0,0.2,0.1,0.3C272,373.8,272.1,373.9,272.2,373.9z"/>
				</g>
			</g>
		</g>
		<g>
			<g>
				<g>
					<g>
						<path class="st5" d="M277.1,183.8c-27.7-19.4-46.2-16.4-47.9-13s12.9,10.3,10.7,11c-33,9.8-37,37.1-27.6,32
							c-12.1,25.3,15.7,41,34.3,34.9c18.6-6.1,26.6-38,26.6-38c6.9,8.7,9.5-14.1,9.5-14.1L277.1,183.8z"/>
					</g>
				</g>
			</g>
			<g>
				<g>
					<g>
						<path class="st7" d="M239.5,236.2c0.2,0,0.3-0.1,0.4-0.3c0-0.2-0.1-0.4-0.3-0.4c-11.3-2-18.1-7.7-18.3-15.4
							c-0.2-10.8,13-25.3,42.4-31.8c0.2,0,0.3-0.2,0.3-0.5c0-0.2-0.2-0.3-0.5-0.3c-29.9,6.6-43.3,21.5-43,32.5
							C220.7,228.1,227.8,234.2,239.5,236.2C239.4,236.2,239.5,236.2,239.5,236.2z"/>
					</g>
				</g>
			</g>
			<g>
				<g>
					<g>
						<path class="st7" d="M250.9,215.5c0.6,0,1.2-0.1,1.9-0.4c0.2-0.1,0.3-0.3,0.2-0.5c-0.1-0.2-0.3-0.3-0.5-0.2
							c-1.4,0.6-2.6,0.4-3.1-0.3c-1.3-1.8,0.3-7.6,9.1-17.9c0.1-0.2,0.1-0.4,0-0.5c-0.2-0.1-0.4-0.1-0.5,0
							c-7.7,9-11.1,16.1-9.2,18.8C249.2,215.1,249.9,215.5,250.9,215.5z"/>
					</g>
				</g>
			</g>
			<g>
				<g>
					<g>
						<path class="st7" d="M226.9,175.2c0.1,0,0.2,0,0.2-0.1c0.2-0.1,0.2-0.4,0.1-0.5c-3-4.1-3.5-7.4-1.7-9.5c4-4.6,20-3.1,37.3,6.4
							c0.2,0.1,0.4,0,0.5-0.2c0.1-0.2,0-0.4-0.2-0.5c-16.3-8.9-33.5-11.6-38.3-6.2c-1.5,1.7-2.4,4.8,1.7,10.4
							C226.7,175.1,226.8,175.2,226.9,175.2z"/>
					</g>
				</g>
			</g>
			<g>
				<g>
					<g>
						<path class="st4" d="M335.2,217.4l-0.8,19.9c12.5,8.6-11.3,18-25-1.2c3.9-19.1-0.4-38.3-0.4-38.3L335.2,217.4z"/>
					</g>
				</g>
			</g>
			<g>
				<g>
					<g>
						<path class="st8" d="M272.7,184.5c-1.2,6.5,3.1,12.7,9.6,13.9c6.5,1.2,12.7-3.1,13.9-9.6c1.2-6.5-3.1-12.7-9.6-13.9
							C280.2,173.7,273.9,178,272.7,184.5z"/>
					</g>
				</g>
			</g>
			<g>
				<g>
					<g>
						<path class="st5" d="M338.7,112c27.4,3.5,37.1-0.6,47.9-1.2c10.7-0.7,24.4,32.5,7.6,23.4c3.7,22.9-10.3,39.9-10.4,40.7
							c3.1,7.5,12.1,17.6,9.8,27.2c-2.3,9.6-8,7.5-14.8,0.2c-6.9-7.3-69.1-9.8-69.1-9.8s1.5,2.1,0.4,6.4c-5.2,8-11.8,11.1-12,6.3
							c-10.1-1.3-19.2-19.1-19.5-45.1C278.3,134,296.1,100.5,338.7,112z"/>
					</g>
				</g>
			</g>
			<g>
				<g>
					<g>
						<path class="st4" d="M307.4,158.8c5.9,14.4-1.5,28.7-7.8,22.1c5.7,31.7,15.6,46.5,48.2,50.7c32.6,4.2,34.6-31.9,33.9-39.1
							c-0.7-7.3,1.6-22,2.4-32.6c0.5-12.6-15.7-30.3-19.4-32.7c-4.4,15.5-25.1,23.2-31.4,24c-6.3,0.8-4.6-5.4-4.6-5.4
							C319.1,160,307.4,158.8,307.4,158.8z"/>
					</g>
				</g>
			</g>
			<image style="overflow:visible;" width="30" height="25" xlink:href="2E3C2F2F.png"  transform="matrix(1 0 0 1 308 184)">
			</image>
			<image style="overflow:visible;" width="14" height="21" xlink:href="2E3C2F2D.png"  transform="matrix(1 0 0 1 368 194)">
			</image>
			<g>
				<g>
					<g>
						<g>
							<path class="st6" d="M328.3,189.4c6,5,13.1,3.2,14.8,1.8c2.3-3.5,4.1-6.8,4.7-9.8c0.7-3.4-0.1-6.5-3.2-9.1
								c-5-4.2-20.5-2.3-18.8,9.8C326,184.3,326.8,186.7,328.3,189.4z"/>
						</g>
					</g>
				</g>
				<g>
					<g>
						<g>
							<path class="st5" d="M325.7,182.5C325.7,182.5,325.7,182.5,325.7,182.5c0.2,0,0.4-0.2,0.3-0.4c-0.8-5.5,2.1-8.4,4.6-9.8
								c4.6-2.6,11-2,13.7,0.2c2.8,2.3,3.8,5.2,3.1,8.8c0,0.2,0.1,0.4,0.3,0.4c0.2,0,0.4-0.1,0.4-0.3c0.7-3.8-0.4-6.9-3.4-9.5
								c-3.2-2.7-9.9-2.8-14.4-0.3c-3.9,2.1-5.6,5.9-5,10.5C325.4,182.4,325.5,182.5,325.7,182.5z"/>
						</g>
					</g>
				</g>
				<g>
					<defs>
						<path id="SVGID_1_" d="M328.3,189.4c6,5,13.1,3.2,14.8,1.8c2.3-3.5,4.1-6.8,4.7-9.8c0.7-3.4-0.1-6.5-3.2-9.1
							c-5-4.2-20.5-2.3-18.8,9.8C326,184.3,326.8,186.7,328.3,189.4z"/>
					</defs>
					<clipPath id="SVGID_00000007416694494073526820000000287497443019228042_">
						<use xlink:href="#SVGID_1_"  style="overflow:visible;"/>
					</clipPath>
					<g style="clip-path:url(#SVGID_00000007416694494073526820000000287497443019228042_);">
						<g>
							<g>
								<path class="st5" d="M348.7,185.6c-0.8,5.5-5.8,9.2-11.1,8.4c-5.3-0.8-8.9-5.9-8-11.4c0.8-5.5,5.8-9.2,11.1-8.4
									C345.9,175,349.5,180.1,348.7,185.6z"/>
							</g>
						</g>
					</g>
				</g>
				<g>
					<g>
						<g>
							<path class="st5" d="M324.1,184.1c0.2,0,0.3-0.1,0.3-0.3c0-0.2-0.1-0.4-0.3-0.4l-2-0.1c-0.2,0-0.4,0.1-0.4,0.3
								c0,0.2,0.1,0.4,0.3,0.4L324.1,184.1C324,184.1,324.1,184.1,324.1,184.1z"/>
						</g>
					</g>
				</g>
				<g>
					<g>
						<g>
							<path class="st5" d="M323.1,185.3C323.1,185.3,323.1,185.3,323.1,185.3l1.7-0.2c0.2,0,0.3-0.2,0.3-0.4c0-0.2-0.2-0.3-0.4-0.3
								l-1.6,0.2c-0.2,0-0.3,0.2-0.3,0.4C322.8,185.1,322.9,185.3,323.1,185.3z"/>
						</g>
					</g>
				</g>
				<g>
					<g>
						<g>
							<path class="st5" d="M350.9,181.9c0.2,0,0.3-0.1,0.3-0.3c0-0.2-0.1-0.3-0.3-0.4l-3.1-0.1c-0.2,0-0.3,0.1-0.4,0.3
								c0,0.2,0.1,0.3,0.3,0.4L350.9,181.9C350.9,181.9,350.9,181.9,350.9,181.9z"/>
						</g>
					</g>
				</g>
			</g>
			<g>
				<g>
					<g>
						<g>
							<path class="st6" d="M361.8,191.6c4.7,4.8,10.6,2.8,12,1.4c2-3.5,3.5-6.9,4.1-9.9c0.6-3.5,0.1-6.5-2.4-9
								c-3.9-4-16.7-1.7-15.6,10.3C360.1,186.5,360.7,188.9,361.8,191.6z"/>
						</g>
					</g>
				</g>
				<g>
					<g>
						<g>
							<path class="st5" d="M360,184.8C360,184.8,360,184.8,360,184.8c0.2,0,0.4-0.2,0.3-0.4c-0.4-5,1.6-9,5.6-10.8
								c3.4-1.6,7.5-1.2,9.4,0.7c2.2,2.2,3,5.1,2.3,8.7c0,0.2,0.1,0.4,0.3,0.4c0.2,0,0.4-0.1,0.4-0.3c0.7-3.8-0.1-6.9-2.5-9.3
								c-2.1-2.2-6.5-2.6-10.2-0.9c-4.3,2-6.5,6.2-6,11.5C359.6,184.7,359.8,184.8,360,184.8z"/>
						</g>
					</g>
				</g>
				<g>
					<defs>
						<path id="SVGID_00000092454312108898762470000011667767727595866514_" d="M361.8,191.6c4.7,4.8,10.6,2.8,12,1.4
							c2-3.5,3.5-6.9,4.1-9.9c0.6-3.5,0.1-6.5-2.4-9c-3.9-4-16.7-1.7-15.6,10.3C360.1,186.5,360.7,188.9,361.8,191.6z"/>
					</defs>
					<clipPath id="SVGID_00000083070484065229789280000005468618811210717063_">
						<use xlink:href="#SVGID_00000092454312108898762470000011667767727595866514_"  style="overflow:visible;"/>
					</clipPath>
					<g style="clip-path:url(#SVGID_00000083070484065229789280000005468618811210717063_);">
						<g>
							<g>
								
									<ellipse transform="matrix(0.1526 -0.9883 0.9883 0.1526 129.9575 523.2897)" class="st5" cx="370.1" cy="185.9" rx="10" ry="8.6"/>
							</g>
						</g>
					</g>
				</g>
				<g>
					<g>
						<g>
							<path class="st5" d="M378.9,189.8c0.2,0,0.3-0.1,0.3-0.3c0-0.2-0.1-0.4-0.2-0.4l-1.5-0.4c-0.2-0.1-0.4,0.1-0.4,0.2
								c0,0.2,0.1,0.4,0.2,0.4L378.9,189.8C378.8,189.8,378.9,189.8,378.9,189.8z"/>
						</g>
					</g>
				</g>
				<g>
					<g>
						<g>
							<path class="st5" d="M377.8,190.7c0.1,0,0.2-0.1,0.3-0.2c0.1-0.2,0-0.4-0.1-0.5l-1.2-0.6c-0.2-0.1-0.4,0-0.5,0.1
								c-0.1,0.2,0,0.4,0.1,0.5l1.2,0.6C377.7,190.7,377.8,190.7,377.8,190.7z"/>
						</g>
					</g>
				</g>
				<g>
					<g>
						<g>
							<path class="st5" d="M381.4,183.7c0.2,0,0.3-0.1,0.3-0.3c0-0.2-0.1-0.4-0.3-0.4l-3.4-0.3c-0.2,0-0.4,0.1-0.4,0.3
								c0,0.2,0.1,0.4,0.3,0.4L381.4,183.7C381.3,183.7,381.3,183.7,381.4,183.7z"/>
						</g>
					</g>
				</g>
			</g>
			<g>
				<g>
					<g>
						<g>
							<path class="st4" d="M347,189.5c11-1.1,19.4,2.4,17.3,6.7c-2.1,4.3-7.8,11.3-14.9,7.4C342.3,199.7,342.3,190,347,189.5z"/>
						</g>
					</g>
				</g>
				<g>
					<g>
						<g>
							<path class="st11" d="M364.2,193.2c-11.1-1.7-16.4-1.2-13.4,2.8c3,4.1,8.4,5.1,9.8,4.3C361.9,199.6,366.5,194.6,364.2,193.2z
								"/>
						</g>
					</g>
				</g>
				<g>
					<g>
						<g>
							<path class="st5" d="M360.1,201c0.1,0,0.1,0,0.2-0.1c2.5-1.6,3.9-4.2,4.4-5.2c0.5-1,0.4-1.9-0.2-2.9c-1.8-2.6-7.5-4-13.6-3.4
								c-0.2,0-0.4,0.2-0.3,0.4c0,0.2,0.2,0.4,0.4,0.3c6.6-0.7,11.6,1.1,12.9,3.1c0.5,0.7,0.5,1.4,0.2,2.1c-1,2-2.6,3.9-4.2,4.9
								c-0.2,0.1-0.2,0.4-0.1,0.5C359.8,201,360,201,360.1,201z"/>
						</g>
					</g>
				</g>
				<g>
					<g>
						<g>
							<path class="st5" d="M355.3,199.2c0.1,0,0.2,0,0.2-0.1c0.2-0.1,0.2-0.4,0.1-0.5c-1.2-1.6-2.8-2.2-3.7-2
								c-0.4,0.1-0.7,0.4-0.7,0.7c0,0.2,0.1,0.4,0.3,0.4c0.2,0,0.4-0.1,0.4-0.3c0,0,0.1-0.1,0.3-0.1c0.7-0.1,1.9,0.4,2.8,1.7
								C355.1,199.1,355.2,199.2,355.3,199.2z"/>
						</g>
					</g>
				</g>
			</g>
			<g>
				<image style="overflow:visible;" width="26" height="29" xlink:href="2E3C2F33.png"  transform="matrix(1 0 0 1 280 171)">
				</image>
				<g>
					<g>
						<g>
							<path class="st5" d="M295,192.4c0.1,0,0.2-0.1,0.3-0.1c0.1-0.2,0.1-0.4-0.1-0.5c-3.3-2.5-3.4-5.9-2.1-8
								c0.9-1.5,2.4-2,3.7-1.4c0.2,0.1,0.4,0,0.5-0.2c0.1-0.2,0-0.4-0.2-0.5c-1.7-0.8-3.6-0.2-4.7,1.6c-1.5,2.4-1.2,6.3,2.3,9
								C294.8,192.4,294.9,192.4,295,192.4z"/>
						</g>
					</g>
				</g>
				<g>
					<g>
						<g>
							<path class="st5" d="M298.3,187.5c0.2,0,0.4-0.1,0.4-0.3c0.2-2.7-0.9-6.8-3.4-9c-1.8-1.6-4.1-2.1-6.8-1.4
								c-0.2,0-0.3,0.3-0.3,0.5c0,0.2,0.3,0.3,0.5,0.3c2.4-0.6,4.5-0.1,6.1,1.3c2.5,2.2,3.4,6.2,3.2,8.3
								C297.9,187.3,298.1,187.5,298.3,187.5C298.3,187.5,298.3,187.5,298.3,187.5z"/>
						</g>
					</g>
				</g>
			</g>
			<g>
				<g>
					<g>
						<path class="st5" d="M352.9,232.4c7.4,0,13.6-2.3,18.4-7c10.3-10,11.2-27.6,10.7-32.9c-0.5-4.9,0.5-13.4,1.4-21.6
							c0.4-3.9,0.8-7.6,1.1-10.9c0.5-13-16.1-30.8-19.5-33.1c-0.1-0.1-0.2-0.1-0.3,0c-0.1,0-0.2,0.1-0.2,0.3
							c-4.5,15.5-25.5,23-31.1,23.7c-1.7,0.2-2.9-0.1-3.6-0.9c-1.2-1.4-0.5-4-0.5-4c0-0.2,0-0.4-0.2-0.4c-0.2-0.1-0.4,0-0.5,0.1
							c-9.5,13.9-21,12.9-21.1,12.9c-0.2,0-0.4,0.1-0.4,0.3c0,0.2,0.1,0.4,0.3,0.4c0.1,0,11.3,1,20.9-12c0,1,0.1,2.2,0.9,3.2
							c0.9,1,2.3,1.4,4.3,1.1c5.6-0.7,26.7-8.2,31.6-23.7c4.1,3.2,19.3,19.9,18.8,32.1c-0.3,3.3-0.7,7-1.1,10.9
							c-0.9,8.3-1.8,16.8-1.4,21.8c0.5,5.3-0.4,22.6-10.5,32.3c-5.7,5.5-13.4,7.6-23,6.4c-11.3-1.5-20-4.3-26.5-8.6
							c-0.2-0.1-0.4-0.1-0.5,0.1c-0.1,0.2-0.1,0.4,0.1,0.5c6.6,4.3,15.4,7.2,26.9,8.7C349.6,232.2,351.3,232.4,352.9,232.4z"/>
					</g>
				</g>
			</g>
			<g>
				<g>
					<g>
						<path class="st7" d="M388,151c0.2,0,0.3-0.1,0.4-0.3c2.3-14.9-2.4-23.9-7.6-27.3c-4-2.7-8.7-2.6-13.2,0.2
							c-0.2,0.1-0.2,0.3-0.1,0.5c0.1,0.2,0.3,0.2,0.5,0.1c4.2-2.6,8.7-2.7,12.4-0.2c5,3.3,9.6,12.1,7.3,26.6
							C387.6,150.8,387.8,151,388,151C388,151,388,151,388,151z"/>
					</g>
				</g>
			</g>
			<g>
				<g>
					<g>
						<path class="st7" d="M394.5,127.4c0,0,0.1,0,0.1,0c0.2-0.1,0.3-0.3,0.2-0.5c-2-4.8-4.7-7.9-8.1-9.3c-3.1-1.2-6.6-0.9-10.6,0.9
							c-0.2,0.1-0.3,0.3-0.2,0.5c0.1,0.2,0.3,0.3,0.5,0.2c3.8-1.7,7.1-2,10-0.9c3.1,1.2,5.7,4.2,7.7,8.9
							C394.2,127.3,394.3,127.4,394.5,127.4z"/>
					</g>
				</g>
			</g>
			<g>
				<g>
					<g>
						<path class="st7" d="M335.6,145.8c6.3,0,16.1-6.2,24.9-20.6c0.1-0.2,0.1-0.4-0.1-0.5c-0.2-0.1-0.4-0.1-0.5,0.1
							c-9.2,15.1-19.3,21-25.4,20.2c-3-0.4-5.2-2.5-6.2-5.9c-0.1-0.2-0.3-0.3-0.5-0.3c-0.2,0.1-0.3,0.3-0.3,0.5
							c1.1,3.8,3.5,6,6.8,6.5C334.8,145.8,335.2,145.8,335.6,145.8z"/>
					</g>
				</g>
			</g>
			<g>
				<g>
					<g>
						<path class="st7" d="M338.6,134.4c3.8,0,8-2.4,11.8-6.8c0.1-0.2,0.1-0.4,0-0.5c-0.2-0.1-0.4-0.1-0.5,0
							c-3.9,4.4-8.1,6.8-11.8,6.6c-2.2-0.1-4.1-1.2-5.5-3.2c-0.1-0.2-0.4-0.2-0.5-0.1c-0.2,0.1-0.2,0.4-0.1,0.5
							c1.5,2.1,3.6,3.4,6,3.5C338.3,134.4,338.5,134.4,338.6,134.4z"/>
					</g>
				</g>
			</g>
			<g>
				<g>
					<g>
						<path class="st5" d="M358.5,164.4c0,1.4,1.7,5.1,7.2,5.1c5.5,0,12.8-3.7,12.8-5.1c0-1.4-7.3-0.1-12.8-0.1
							C360.2,164.4,358.5,163,358.5,164.4z"/>
					</g>
				</g>
			</g>
			<g>
				<g>
					<g>
						<path class="st5" d="M330.3,156.9c0,1.9,8.2,0.1,13.9,0.1s6.7,1.8,6.7-0.1s-1-6.8-6.7-6.8S330.3,155,330.3,156.9z"/>
					</g>
				</g>
			</g>
			<g>
				<g>
					<g>
						<path class="st11" d="M357.8,167c0.1,0,0.1,0,0.2,0c0.2-0.1,0.3-0.3,0.2-0.5c-0.8-1.6-1-2.9-0.6-3.8c0.3-0.7,1-1.2,2-1.4
							c0.2-0.1,0.3-0.3,0.3-0.5c-0.1-0.2-0.3-0.3-0.5-0.3c-1.3,0.3-2.1,0.9-2.5,1.9c-0.5,1.1-0.3,2.7,0.6,4.5
							C357.6,166.9,357.7,167,357.8,167z"/>
					</g>
				</g>
			</g>
			<g>
				<g>
					<g>
						<path class="st5" d="M356.6,208.9c2.8-7.4-9.6-9.5-17.5-4.3C340.7,208,355.8,211,356.6,208.9z"/>
					</g>
				</g>
			</g>
			<g>
				<g>
					<g>
						<path class="st8" d="M352.6,209.5c-4.8-0.4-12.4-2.6-13.5-4.9c1.9-1.3,4.1-2.1,6.2-2.5C350.9,204.8,352.3,207.7,352.6,209.5z"
							/>
					</g>
				</g>
			</g>
			<g>
				<g>
					<g>
						<path class="st11" d="M352.8,213c0.2,0,0.4-0.2,0.4-0.4c0-0.2-0.2-0.4-0.4-0.4c-4.7,0-7.8-1.2-7.8-1.2c-0.2-0.1-0.4,0-0.5,0.2
							c-0.1,0.2,0,0.4,0.2,0.5C344.9,211.8,348,213,352.8,213z"/>
					</g>
				</g>
			</g>
		</g>
		<g>
			<g>
				<g>
					<g>
						<path class="st4" d="M372.3,338.2c14.4-8.1,20.5-7.4,32-7.9c0.5,0,0.9-0.2,1.2-0.6c0.2-0.2,0.3-0.4,0.4-0.6
							c0.1-0.2,0.1-0.5,0.1-0.7c0-0.7-0.5-1.3-1.2-1.5c-0.9-0.3-2.2-0.6-4-0.7c0,0,4.4-1.7,7.2-3.5c0.5-0.3,0.9-0.8,1.1-1.4
							c0.1-0.3,0.1-0.5,0-0.8c-0.1-0.2-0.3-0.4-0.5-0.5c-1.4-0.5-4.6,0.3-8.5,0.4c-0.1,0,3.5-0.8,7.6-1.6c0.5-0.1,1-0.2,1.5-0.4
							s1-0.4,1.4-0.6c0.1-0.1,0.3-0.1,0.4-0.2c0.3-0.2,0.5-0.6,0.6-0.9c0.1-0.2,0.1-0.5,0.1-0.7c-0.1-0.6-0.4-1.2-1-1.5
							c-3-1.5-10.2-4.6-18.5-3.8c0,0,6.2-3.7,14.4-5.6c0.3-0.1,0.6-0.2,0.8-0.5c0.1-0.2,0.3-0.3,0.3-0.6c0.1-0.5,0-1-0.2-1.3
							c-0.2-0.2-0.4-0.4-0.7-0.5c-3.2-1.1-11.8-3.2-23-0.1c0,0,2.1-5.4,2.8-10.7c0.1-0.8-0.1-1.5-0.6-2.1c-0.4-0.6-1.1-1-1.9-1.1
							c-0.4,0-0.7,0-1.1,0.1c-0.9,0.2-1.6,0.8-1.9,1.7c-1.1,2.8-2.9,8.4-7.1,12.6c-51.4,29.3-82.3,32.3-82.3,32.3l-1.2-39.7
							l-46.9,8.3c2.1,18.8,8,49.8,11.3,66.4c0.6,2.9,1.7,5.7,3.2,8.2c2.2,3.6,5.4,6.6,9.2,8.7l0,0c2.1,1.1,4.3,2,6.6,2.5
							c4.6,1,9.5,0.7,14-1C330.5,372.1,372.3,338.2,372.3,338.2z"/>
					</g>
				</g>
			</g>
			<image style="overflow:visible;" width="31" height="19" xlink:href="2E3C2F35.png"  transform="matrix(1 0 0 1 259 371)">
			</image>
			<g>
				<g>
					<g>
						<path class="st5" d="M273.8,389.5c-2.3-0.5-4.6-1.3-6.7-2.5c-3.8-2.1-7-5.1-9.3-8.8c-1.6-2.6-2.7-5.4-3.3-8.3
							c-3.3-16.7-9.3-47.6-11.3-66.4c0-0.2,0.1-0.4,0.3-0.4l46.9-8.3c0.1,0,0.2,0,0.3,0.1c0.1,0.1,0.1,0.2,0.1,0.3l1.2,39.3
							c3.8-0.5,34.1-5,81.7-32.2c3.7-3.7,5.5-8.6,6.6-11.5c0.1-0.3,0.2-0.7,0.4-0.9c0.4-0.9,1.2-1.7,2.2-1.9
							c0.4-0.1,0.8-0.1,1.2-0.1c0.8,0.1,1.6,0.5,2.1,1.2c0.5,0.7,0.8,1.5,0.7,2.4c-0.5,4.2-2,8.4-2.5,10.1c11-2.8,19.4-0.7,22.5,0.3
							c0.4,0.1,0.7,0.4,0.9,0.7c0.4,0.5,0.5,1.1,0.3,1.7c-0.1,0.3-0.2,0.5-0.4,0.7c-0.3,0.3-0.6,0.5-1,0.6
							c-5.7,1.3-10.5,3.5-12.8,4.7c7.8-0.3,14.4,2.7,17,4c0.7,0.4,1.2,1,1.2,1.8c0,0.3,0,0.6-0.1,0.9c-0.1,0.4-0.4,0.8-0.7,1.1
							c-0.1,0.1-0.3,0.2-0.4,0.3c-0.5,0.2-1,0.4-1.5,0.6c-0.5,0.2-1,0.3-1.5,0.4c-0.5,0.1-0.9,0.2-1.4,0.3c1-0.1,1.8-0.1,2.3,0.2
							c0.4,0.1,0.6,0.4,0.8,0.8c0.1,0.3,0.1,0.7,0,1.1c-0.3,0.6-0.7,1.1-1.3,1.5c-1.8,1.2-4.3,2.3-5.8,2.9c1,0.1,1.8,0.3,2.6,0.6
							c0.8,0.3,1.4,1,1.4,1.9c0,0.3,0,0.6-0.1,0.8c-0.1,0.3-0.2,0.5-0.4,0.7c-0.4,0.4-0.9,0.7-1.5,0.7c-1.1,0-2.2,0.1-3.2,0.1
							c-9.4,0.3-15.7,0.5-28.6,7.7c-1.2,1-42.7,34.3-84.6,50c-2.8,1.1-5.8,1.6-8.8,1.6C277.3,390.1,275.5,389.9,273.8,389.5z
							 M404.6,320.5c-1.3,0.2-2.9,0.3-4.5,0.4c-0.2,0-0.4-0.1-0.4-0.3c0-0.2,0-0.2,0.4-0.4l0,0c0,0,0.1,0,0.1,0
							c0.8-0.2,2.7-0.6,7.4-1.6c0.5-0.1,1-0.2,1.4-0.4c0.5-0.2,0.9-0.3,1.4-0.6c0.1-0.1,0.2-0.1,0.3-0.2c0.2-0.2,0.4-0.4,0.5-0.7
							c0.1-0.2,0.1-0.4,0.1-0.6c0-0.5-0.4-1-0.8-1.2c-2.7-1.4-10-4.6-18.3-3.8c-0.2,0-0.3-0.1-0.4-0.3c-0.1-0.2,0-0.4,0.2-0.4
							c0.1,0,6.3-3.7,14.5-5.6c0.2-0.1,0.4-0.2,0.6-0.4c0.1-0.1,0.2-0.3,0.2-0.4c0.1-0.3,0-0.7-0.2-1c-0.1-0.2-0.3-0.3-0.5-0.4
							c-3.1-1.1-11.6-3.2-22.8-0.1c-0.1,0-0.3,0-0.4-0.1c-0.1-0.1-0.1-0.3-0.1-0.4c0-0.1,2.1-5.4,2.8-10.6c0.1-0.6-0.1-1.3-0.5-1.8
							c-0.4-0.5-1-0.8-1.6-0.9c-0.3,0-0.6,0-0.9,0.1c-0.8,0.2-1.4,0.7-1.7,1.5c-0.1,0.3-0.2,0.6-0.4,0.9c-1.1,3-3,8-6.8,11.8
							c0,0-0.1,0-0.1,0.1c-50.9,29-82.1,32.3-82.4,32.3c-0.1,0-0.2,0-0.3-0.1c-0.1-0.1-0.1-0.2-0.1-0.3l-1.2-39.3l-46.1,8.2
							c2.1,18.8,8,49.4,11.3,66c0.6,2.9,1.6,5.6,3.2,8.1c2.2,3.6,5.3,6.5,9,8.5c2,1.1,4.2,1.9,6.5,2.4c4.6,1,9.4,0.7,13.8-1
							c42.2-15.8,84-49.6,84.4-49.9c0,0,0,0,0.1,0c13-7.3,19.4-7.5,28.9-7.8c1,0,2.1-0.1,3.2-0.1c0.4,0,0.7-0.2,0.9-0.4
							c0.1-0.1,0.2-0.3,0.3-0.5c0.1-0.2,0.1-0.4,0.1-0.5c0-0.5-0.4-1-0.9-1.2c-1.1-0.4-2.4-0.6-3.9-0.7c-0.2,0-0.3-0.1-0.3-0.3
							c0-0.2,0.1-0.3,0.2-0.4c0,0,4.4-1.7,7.1-3.4c0.4-0.3,0.8-0.7,1-1.2c0.1-0.2,0.1-0.3,0-0.5c-0.1-0.2-0.2-0.3-0.3-0.3
							c-0.3-0.1-0.7-0.2-1.1-0.2C406.6,320.2,405.7,320.4,404.6,320.5z"/>
					</g>
				</g>
			</g>
			<g>
				<g>
					<g>
						<path class="st5" d="M394.8,322C394.8,322,394.8,322,394.8,322c0.1,0,2.3-0.2,5.4-1.1c0.2-0.1,0.3-0.3,0.3-0.5
							c-0.1-0.2-0.3-0.3-0.5-0.3c-3,0.9-5.2,1.1-5.2,1.1c-0.2,0-0.4,0.2-0.3,0.4C394.4,321.8,394.6,322,394.8,322z"/>
					</g>
				</g>
			</g>
			<g>
				<g>
					<g>
						<path class="st5" d="M272,342.1c0.1,0,0.2,0,0.3-0.1c0,0,3.5-3.2,19.4-6.7c0.2,0,0.3-0.2,0.3-0.5c0-0.2-0.2-0.3-0.5-0.3
							c-16.2,3.5-19.6,6.8-19.8,6.9c-0.1,0.1-0.1,0.4,0,0.5C271.8,342.1,271.9,342.1,272,342.1z"/>
					</g>
				</g>
			</g>
		</g>
		<g>
			<g>
				<g>
					<path class="st6" d="M299.3,311.5l-59.4-5.5c8.6-38.8,23.5-63.1,45.2-62.9C306.7,243.4,303.8,285.3,299.3,311.5z"/>
				</g>
			</g>
		</g>
		<g>
			<g>
				<g>
					<path class="st0" d="M299.3,311.5l-59.4-5.5c0.9-3.9,1.8-7.7,2.8-11.3l58.7,2.1C300.8,301.9,300.1,306.9,299.3,311.5z"/>
				</g>
			</g>
		</g>
		<g>
			<g>
				<g>
					<path class="st5" d="M299.3,311.8c0.2,0,0.3-0.1,0.4-0.3c1.3-7.8,2.9-19.5,3.1-31.1c0-0.2-0.2-0.4-0.4-0.4
						c-0.2,0-0.4,0.2-0.4,0.4c-0.2,11.4-1.8,22.9-3.1,30.7l-58.7-5.4c9.1-40.7,24.4-62.1,44.3-62.1c0.1,0,0.2,0,0.4,0c0,0,0,0,0,0
						c0.2,0,0.4-0.2,0.4-0.4c0-0.2-0.2-0.4-0.4-0.4c-0.1,0-0.2,0-0.4,0c-20.4,0-36,21.8-45.2,63.2c0,0.1,0,0.2,0.1,0.3
						c0.1,0.1,0.2,0.1,0.3,0.2L299.3,311.8C299.3,311.8,299.3,311.8,299.3,311.8z"/>
				</g>
			</g>
		</g>
		<g>
			<g>
				<g>
					<g>
						<polygon class="st12" points="411.8,235.3 414.5,231.4 426.6,235.6 424.6,238.4 452.6,257.7 449.9,261.6 421.9,242.3 
							420,245.1 						"/>
					</g>
				</g>
				<g>
					<g>
						<path class="st13" d="M452.4,266.7l5.8-8.4l-4.1-2.8c-0.4-0.3-1-0.4-1.4-0.3c-0.5,0.1-0.9,0.4-1.2,0.8l-3.6,5.2
							c-0.3,0.4-0.4,0.9-0.3,1.3c0.1,0.5,0.3,1,0.8,1.3L452.4,266.7z"/>
					</g>
				</g>
				<g>
					<g>
						<path class="st14" d="M504.3,296.3L504.3,296.3c1.5-2.1,2-4.6,1.6-7c-0.4-2.6-1.8-5.1-4.1-6.7L460.4,254
							c-0.6-0.4-1.2-0.5-1.8-0.4c-0.6,0.1-1.2,0.5-1.6,1l-8.4,12.1c-0.4,0.5-0.5,1.2-0.4,1.7c0.1,0.7,0.4,1.3,1,1.7l41.4,28.6
							c2.7,1.9,6,2.2,8.8,1.2C501.4,299.3,503.1,298.1,504.3,296.3z"/>
					</g>
				</g>
			</g>
			<g>
				<g>
					<g>
						<path class="st5" d="M420.2,245.3l6.6-9.5c0-0.1,0.1-0.2,0-0.2c0-0.1-0.1-0.1-0.2-0.2l-12.1-4.2c-0.1,0-0.2,0-0.3,0.1
							l-2.7,3.9c-0.1,0.1-0.1,0.3,0.1,0.4c0.1,0.1,0.3,0.1,0.4-0.1l2.6-3.8l11.5,4l-6.4,9.2c-0.1,0.1-0.1,0.3,0.1,0.4
							C420,245.5,420.1,245.4,420.2,245.3z"/>
					</g>
				</g>
			</g>
			<g>
				<g>
					<g>
						<path class="st5" d="M451,256.7L451,256.7c0.1-0.1,0.1-0.3-0.1-0.4l-21.4-14.7c-0.1-0.1-0.3-0.1-0.4,0.1l0,0
							c-0.1,0.1-0.1,0.3,0.1,0.4l21.4,14.7C450.8,256.9,450.9,256.9,451,256.7z"/>
					</g>
				</g>
			</g>
			<g>
				<g>
					<g>
						<path class="st5" d="M448,261.3l3.6-5.2c0.1-0.1,0.1-0.3-0.1-0.4c-0.1-0.1-0.3-0.1-0.4,0.1l-3.6,5.2c-0.1,0.1-0.1,0.3,0.1,0.4
							C447.8,261.5,447.9,261.4,448,261.3z"/>
					</g>
				</g>
			</g>
			<g>
				<g>
					<g>
						<path class="st5" d="M448.8,266.9l4-5.7c0.1-0.1,0.1-0.3-0.1-0.4c-0.1-0.1-0.3-0.1-0.4,0.1l-4,5.7c-0.1,0.1-0.1,0.3,0.1,0.4
							C448.5,267.1,448.7,267.1,448.8,266.9z"/>
					</g>
				</g>
			</g>
		</g>
		<g>
			<g>
				<g>
					<g>
						<path class="st4" d="M458.6,276.3c0,0-4.2,9.9-5.8,16.4c-0.2,0.9-0.1,1.8,0.3,2.6c0.4,0.8,1,1.4,1.8,1.8l0,0
							c0.6,0.3,1.2,0.4,1.8,0.4c1,0,1.9-0.4,2.6-1.1c2.6-2.6,7.1-7.3,9.4-11.5c0,0,4.3,6.5,8,4.3c0,0,4.5,7.4,10.1,4
							c9.2,6.9,18.3-5.5,18.6-21.8C505.9,254.2,466.7,246.3,458.6,276.3z"/>
					</g>
				</g>
			</g>
			<g>
				<g>
					<g>
						<path class="st5" d="M454.6,297.4c0,0,0.1,0,0.1,0.1c0.6,0.3,1.3,0.4,2,0.4c1.1,0,2.1-0.5,2.9-1.2c2.4-2.4,6.7-6.9,9.1-11.1
							c1.1,1.5,4.6,5.6,7.8,4.1c0.7,1,2.8,3.9,5.9,4.6c1.5,0.4,2.9,0.1,4.4-0.7c2.9,2.1,5.9,2.4,8.8,1c5.8-2.8,10-12.4,10.2-23.2
							c0.1-4-1.9-7.8-5.7-10.7c-6.2-4.7-15.8-6.3-24-3.8c-0.2,0.1-0.3,0.3-0.3,0.5c0.1,0.2,0.3,0.3,0.5,0.3c8-2.4,17.3-0.9,23.3,3.7
							c3.6,2.7,5.5,6.3,5.4,10.1c-0.2,10.6-4.3,19.9-9.8,22.6c-2.7,1.3-5.5,0.9-8.2-1.1c-0.1-0.1-0.3-0.1-0.4,0
							c-1.3,0.8-2.6,1-4,0.7c-3.2-0.8-5.6-4.5-5.6-4.6c-0.1-0.2-0.3-0.2-0.5-0.1c-3.3,2-7.4-4.1-7.5-4.2c-0.1-0.1-0.2-0.2-0.3-0.2
							c-0.1,0-0.3,0.1-0.3,0.2c-2.3,4.2-6.8,8.9-9.3,11.4c-0.6,0.6-1.5,1-2.4,1c-0.6,0-1.1-0.1-1.6-0.3c-0.7-0.3-1.3-0.9-1.7-1.7
							c-0.3-0.7-0.4-1.5-0.2-2.3c1.6-6.4,5.7-16.3,5.7-16.4c0.1-0.2,0-0.4-0.2-0.5c-0.2-0.1-0.4,0-0.5,0.2c0,0.1-4.2,10-5.8,16.5
							c-0.2,0.9-0.1,1.9,0.3,2.8C453.1,296.3,453.8,297,454.6,297.4z"/>
					</g>
				</g>
			</g>
		</g>
	</g>
	<g>
		<g>
			<g>
				<g>
					<path class="st15" d="M109.4,336.7c1.4-1.4,3.4-2.4,5.7-2.4c1.5,0,3,0.4,4.2,1.2c1.2,0.8,2.3,1.9,3,3.2
						c28,55.4,20.9,174.5,20.9,174.5h-17.7c0,0,6.5-110.1-17.8-167.8C106.3,342.3,107.2,338.9,109.4,336.7z"/>
				</g>
			</g>
			<g>
				<g>
					<path class="st14" d="M181.2,361.6l-127.2,0l28.1,178.9l127.2,0c0,0,7.1-119.1-20.9-174.5c-0.7-1.4-1.7-2.5-3-3.2
						C184.2,362,182.7,361.6,181.2,361.6L181.2,361.6L181.2,361.6z"/>
				</g>
			</g>
			<g>
				<g>
					<path class="st15" d="M48.3,364c1.4-1.4,3.4-2.4,5.7-2.4c1.5,0,3,0.4,4.2,1.2c1.2,0.8,2.3,1.9,3,3.2
						c28,55.4,20.9,174.5,20.9,174.5H64.4c0,0,6.5-110.1-17.8-167.8C45.3,369.5,46.1,366.2,48.3,364z"/>
				</g>
			</g>
			<g>
				<g>
					<path class="st14" d="M82.6,343.9h62.5c9.7,0,18-6.2,21.1-14.9c0.8-2.4,1.3-4.9,1.3-7.6v-9.2c0-8.3-4.5-15.5-11.1-19.4
						c-3.3-1.9-7.2-3-11.3-3H82.6c-5.9,0-11.2,2.3-15.2,5.9c-4.4,4.1-7.2,10-7.2,16.5v9.2c0,1.2,0.1,2.4,0.3,3.6
						C62.2,335.8,71.5,343.9,82.6,343.9z"/>
				</g>
			</g>
			<g>
				<g>
					<path class="st15" d="M82.6,343.9h-2.4c9.7,0,18-6.2,21.1-14.9c0.8-2.4,1.3-4.9,1.3-7.6v-9.2c0-8.3-4.5-15.5-11.1-19.4
						c-3.3-1.9-7.2-3-11.3-3h2.4c-5.9,0-11.2,2.3-15.2,5.9c-4.4,4.1-7.2,10-7.2,16.5v9.2c0,1.2,0.1,2.4,0.3,3.6
						C62.2,335.8,71.5,343.9,82.6,343.9z"/>
				</g>
			</g>
		</g>
		<g>
			<g>
				<g>
					<path class="st11" d="M290.6,389.8l59.7,59.9c7.8,14.9-25.1,42-38.3,52.4l0,0c-0.4,0.3-0.8,0.6-1.2,0.9
						c-6.6,4.7-14.5,5.9-21.7,4.2c-7.2-1.7-13.8-6.4-17.8-13.4l-23-41l-13-26.7L290.6,389.8z"/>
				</g>
			</g>
		</g>
		<g>
			<g>
				<g>
					<path class="st5" d="M295.3,508.5c-2.1,0-4.3-0.2-6.4-0.8c-7.7-1.8-14.3-6.8-18.1-13.7l-23-41l-13.1-26.7
						c-0.1-0.2,0-0.5,0.2-0.6l55.3-36.2c0.2-0.1,0.5-0.1,0.6,0.1l59.7,59.9c0,0,0.1,0.1,0.1,0.1c7,13.4-17,36.3-38.5,53.1
						c-0.4,0.3-0.8,0.6-1.2,0.9C306.5,506.8,301,508.5,295.3,508.5z M235.9,426.3l12.8,26.3l22.9,41c3.7,6.6,10.1,11.4,17.4,13.2
						c7.4,1.8,15.2,0.3,21.3-4.1c0.4-0.3,0.8-0.6,1.2-0.9c29.8-23.3,43.4-41.7,38.2-51.7l-59.3-59.6L235.9,426.3z"/>
				</g>
			</g>
		</g>
		<g>
			<g>
				<path class="st16" d="M256.6,420.9c25.9-12,39.3-31.4,39.3-31.4c-11.6-7.4-34.2-29.6-45.8-34.2c-11.6-4.6-37.1-7.9-37.1-7.9
					l-41.3-8c-38.6,0.1-74.2,16.8-86.2,42.6c-12,25.9-13.4,30.5-13.4,30.5l12.7,1.7l12.2,57.5c0,0,12.9,3.2,11.6,12
					c-2.8,22.6-12.9,57.3-12.9,57.3h144.7C252.5,511.9,256.6,420.9,256.6,420.9z"/>
			</g>
		</g>
		<g>
			<g>
				<path class="st6" d="M199.9,370.8c-12.3,0-28.9-6.9-38.4-26.3l-2.2-4.4c4.1-0.4,8.3-0.6,12.5-0.6l41.3,8c0,0,5.5,0.7,12.5,1.9
					l-0.7,1c-0.1,4.1-1.5,7.9-4.1,11.3C216.4,367.5,208.7,370.8,199.9,370.8z"/>
			</g>
		</g>
		<g>
			<g>
				<path class="st5" d="M240.5,541.6H95.8c-0.2,0-0.3-0.1-0.4-0.2c-0.1-0.1-0.1-0.3-0.1-0.4c0.1-0.3,10.2-34.8,12.9-57.2
					c1.3-8.2-11.1-11.4-11.2-11.5c-0.2,0-0.3-0.2-0.4-0.4l-12.2-57.1l-12.4-1.7c-0.1,0-0.3-0.1-0.4-0.2c-0.1-0.1-0.1-0.3-0.1-0.4
					c0.1-0.2,1.5-5,13.4-30.6c11.9-25.6,46.7-42.8,86.7-42.9l41.4,8c0.2,0,25.7,3.3,37.2,7.9c7,2.8,17.7,11.7,28.1,20.4
					c6.8,5.6,13.1,10.9,17.7,13.9c0.1,0.1,0.2,0.2,0.2,0.3c0,0.1,0,0.3-0.1,0.4c-0.1,0.2-13.7,19.5-39.2,31.5
					c-0.3,5.8-4.6,92-16.2,120C240.9,541.4,240.7,541.6,240.5,541.6z M96.5,540.5h143.7c11.7-29,16-118.7,16-119.7
					c0-0.2,0.1-0.4,0.3-0.4c23.4-10.8,36.6-27.9,38.8-30.8c-4.6-3-10.8-8.2-17.4-13.7c-9.8-8.2-21-17.5-27.8-20.2
					c-11.4-4.5-36.7-7.8-37-7.8l-41.3-8c-39.5,0.1-73.9,17.1-85.6,42.4c-9.7,21-12.5,28-13.2,29.9l12.1,1.6c0.2,0,0.4,0.2,0.4,0.4
					l12.2,57.2c2,0.6,12.9,4.2,11.6,12.5C106.7,504.6,97.9,535.7,96.5,540.5z"/>
			</g>
		</g>
		<g>
			<g>
				<path class="st6" d="M299.7,388c-10.4,15.6-30.5,30.2-39.9,35c-0.3-10.7-1-18.4-1-18.4c18.4-13.9,27.4-26.3,27.4-26.3L299.7,388
					z"/>
			</g>
		</g>
		<g>
			<g>
				<path class="st11" d="M225.6,328.4l-12.5,19.1c3.8,14.6-27.7,19.8-41.3-8c15.3-9,21.1-22.9,21.1-22.9S226.3,329.4,225.6,328.4z"
					/>
			</g>
		</g>
		<g>
			<g>
				<path class="st5" d="M266.6,258.7c8.1-5.8,1.8-15.7,2.5-16.4c34.7-23.8,8.3-46.2-23.3-28.4c2.1-10.6-4.4-22.2-17.1-12
					c-12.7,10.2-23.8,20.3-28,21s-17.8,10.2-18.5,9.9c-14.8-3.9-19.9,8.8-18.3,10.4c-11.6,4.2-5.8,15.7-5.8,15.7
					c-10.9,9.9-15.5,38.4,11.1,43.2s49.5,2.5,51.3-2.5C222.4,294.5,266.6,258.7,266.6,258.7z"/>
			</g>
		</g>
		<g>
			<g>
				<path class="st4" d="M191,289.2c0,0,8.6-14.1,0.9-27.3c0,0,21.7-2.3,22-20.3c3.5,2.8,8.1,0.2,8.3-9.2c5.8,3,31.7,5.8,33.3-2.3
					c11.3,11.8,13.6,25.7,13.4,34.4c-0.2,8.8,8.1,12.9,9.7,26.3c1.6,13.4-1.8,31.9-30.3,40c-28.4,8.1-63-16.9-66-22.6
					C179.3,302.4,191,289.2,191,289.2z"/>
			</g>
		</g>
		<g>
			<g>
				<path class="st11" d="M259.7,293.7c0-7.8,6.4-14.2,14.3-14.2c0.4,0,0.7,0,1.1,0.1c1.6,3,2.9,6.6,3.5,11.3
					c0.6,5.1,0.5,11-1.5,16.8c-1,0.2-2.1,0.3-3.1,0.3C266.1,307.9,259.7,301.5,259.7,293.7z"/>
			</g>
		</g>
		<g>
			<g>
				<path class="st5" d="M236.6,332.9c-7.3,0-15.4-1.6-24.5-4.8c-0.3-0.1-0.4-0.4-0.3-0.6c0.1-0.3,0.4-0.4,0.6-0.3
					c14.1,5,25.8,6,35.8,3.2c27.7-7.9,31.6-25.8,29.9-39.4c-0.8-6.9-3.4-11.3-5.7-15.1c-2.2-3.7-4.1-6.9-4-11.3
					c0.2-5.9-0.8-21.1-13.3-34.1c-0.2-0.2-0.2-0.5,0-0.7c0.2-0.2,0.5-0.2,0.7,0c12.7,13.2,13.7,28.7,13.5,34.8
					c-0.1,4.1,1.7,7.2,3.8,10.7c2.4,4,5,8.5,5.9,15.5c1.7,14-2.2,32.4-30.6,40.5C244.8,332.3,240.8,332.9,236.6,332.9z"/>
			</g>
		</g>
		<g>
			<g>
				<ellipse class="st11" cx="209.5" cy="301.1" rx="14.3" ry="14.2"/>
			</g>
		</g>
		<g>
			<g>
				<path class="st5" d="M263,249.3c0.1-2.1-2.1-8.4-7.6-8.6c-5.6-0.2-10.4,8.5-10.4,10.7c-0.1,2.1,4.6-3.1,10.2-2.9
					C260.7,248.7,263,251.5,263,249.3z"/>
			</g>
		</g>
		<g>
			<g>
				<g>
					<g>
						<path class="st11" d="M243.9,305.1c-2.7-0.1-4.9,1-5.9,1.8c-0.2,0.2-0.3,0.6-0.2,0.9c0.1,0.3,0.4,0.4,0.6,0.2
							c1-0.8,4.6-2.6,8.6-1c0.2,0.1,0.5-0.1,0.6-0.4c0.1-0.3-0.1-0.7-0.3-0.8C246.1,305.3,244.9,305.1,243.9,305.1z"/>
					</g>
				</g>
			</g>
		</g>
		<g>
			<g>
				<g>
					<path class="st5" d="M211.4,256.9c0.6,2.1,10.8,4.1,16.1,2.5c5.3-1.6,3.8-6.3,3.2-8.4s-0.1-0.7-5.5,0.9
						C219.9,253.6,210.7,254.9,211.4,256.9z"/>
				</g>
			</g>
			<g>
				<g>
					<g>
						<path class="st11" d="M231.9,252.4c-0.1-0.1-0.1-0.1-0.1-0.2c-0.4-2.7-1.2-3.4-1.5-3.6c-0.3-0.1-0.5-0.1-0.8,0
							c-0.2,0.1-0.5,0-0.6-0.2c-0.1-0.2,0-0.5,0.2-0.6c0.5-0.3,1.1-0.3,1.6,0c0.7,0.4,1.6,1.4,2,4.3c0,0.2-0.1,0.5-0.4,0.5
							C232.2,252.6,232,252.6,231.9,252.4z"/>
					</g>
				</g>
			</g>
		</g>
		<g>
			<g>
				<g>
					<g>
						<g>
							<path class="st17" d="M257,412.4c5.2-5.6,16.3-4.4,19.8,2.2c3.5,6.6,1.1,6.2-1.1,5.1c-6.4,4.4-14.9,4.4-17.7,1.9
								C255.1,419.1,257,412.4,257,412.4z"/>
						</g>
					</g>
				</g>
			</g>
			<g>
				<g>
					<g>
						<g>
							<path class="st18" d="M161.9,418.6L257,411l0.9,10.6l-95.8,1.1c-0.5,0-0.9-0.1-1.3-0.4c-0.6-0.4-0.9-1.1-0.8-1.9l0,0
								c0.1-0.6,0.4-1.2,1-1.5C161.3,418.7,161.6,418.6,161.9,418.6z"/>
						</g>
					</g>
				</g>
			</g>
			<g>
				<g>
					<g>
						<g>
							<path class="st19" d="M257.4,410.9c-0.1-0.2-0.3-0.3-0.5-0.3l-40.2,3.2c-0.2,0-0.4,0.2-0.4,0.5c0,0.3,0.2,0.4,0.5,0.4
								l40.2-3.2C257.3,411.5,257.5,411.2,257.4,410.9C257.4,411,257.4,410.9,257.4,410.9z"/>
						</g>
					</g>
				</g>
			</g>
			<g>
				<g>
					<g>
						<g>
							<path class="st19" d="M208.6,414.8c-0.1-0.2-0.3-0.3-0.5-0.3l-46.3,3.7c-0.4,0-0.8,0.2-1.1,0.4c-0.7,0.4-1.1,1.1-1.2,1.9
								c0,0.2,0.1,0.5,0.4,0.5c0.2,0,0.5-0.1,0.5-0.4c0.1-0.5,0.3-0.9,0.8-1.2c0.2-0.1,0.5-0.2,0.7-0.2l46.3-3.7
								C208.5,415.3,208.7,415.1,208.6,414.8C208.7,414.9,208.7,414.8,208.6,414.8z"/>
						</g>
					</g>
				</g>
			</g>
			<g>
				<g>
					<g>
						<g>
							<polygon class="st6" points="250.2,410.8 258.3,410.4 259,422.9 252.7,422.5 							"/>
						</g>
					</g>
				</g>
			</g>
			<g>
				<g>
					<g>
						<g>
							<path class="st19" d="M258.8,410.2c-0.1-0.2-0.2-0.3-0.5-0.3l-8.1,0.4c-0.1,0-0.3,0.1-0.3,0.2c-0.1,0.1-0.1,0.2-0.1,0.4
								l2.5,11.7c0.1,0.2,0.3,0.4,0.5,0.3c0.2-0.1,0.4-0.3,0.3-0.5l-2.4-11.2l7.6-0.4c0.2,0,0.4-0.2,0.4-0.5
								C258.8,410.3,258.8,410.3,258.8,410.2z"/>
						</g>
					</g>
				</g>
			</g>
		</g>
		<g>
			<g>
				<path class="st4" d="M146.5,416.5l-3.6,29.5c0,0,45.3-37.5,51.9-39.1c4.2-1,8.1-3.7,10.4-5.6c0.8-0.6,1.7-1,2.7-1
					c0.7,0,1.3,0.1,1.9,0.5h0c0.7,0.4,1.3,0.9,1.7,1.6c0.8,1.3,0.9,3,0,4.5c-3,4.9-8.6,10.9-8.6,10.9c12.8,0.9,19.6,6.1,21.9,8.3
					c0.3,0.3,0.5,0.6,0.6,1c0.1,0.4,0.1,0.8,0,1.2l0,0c-0.1,0.6-0.4,1-0.9,1.4c-0.5,0.4-1.2,0.6-1.9,0.5c-6.7-1.1-13.3-1.1-13.3-1.1
					c6,2.3,10.2,5.6,12.4,7.4c0.3,0.3,0.6,0.6,0.8,1c0.4,0.8,0.6,1.7,0.5,2.6l0,0c-0.1,0.8-0.5,1.5-1,2c-0.5,0.6-1.2,0.9-2,1.1
					l-3.2,0.6l1.2,0.6c0.6,0.2,1,0.7,1.3,1.1c0.4,0.6,0.5,1.4,0.3,2.2l0,0c-0.2,0.5-0.4,1-0.8,1.3c-0.4,0.3-0.9,0.6-1.4,0.7
					c-4.1,0.6-12.2,0.3-12.2,0.3l6,3.2c0.3,0.2,0.6,0.4,0.8,0.7c0.3,0.4,0.3,1,0.2,1.5l0,0c-0.1,0.4-0.3,0.7-0.6,0.9s-0.6,0.4-1,0.5
					c-6.2,0.9-15.4,2.8-26.3,0.6c-12.2,17.6-36.5,38.1-52.5,50.6c-9.3,7.3-21.7,9.4-32.9,5.5v0c-15.9-5.5-25.7-21.6-23.2-38.3
					l9.2-60.9L146.5,416.5z"/>
			</g>
		</g>
		<g>
			<g>
				<g>
					<path class="st5" d="M98.7,513.8c-16.1-5.6-26-21.8-23.4-38.7l9.2-60.9c0-0.2,0.2-0.4,0.4-0.4l61.6,2.2c0.1,0,0.2,0.1,0.3,0.1
						c0.1,0.1,0.1,0.2,0.1,0.3l-3.5,28.4c6.3-5.2,45-37,51.2-38.5c4-0.9,7.8-3.5,10.2-5.5c0.8-0.7,1.9-1.1,2.9-1.1c0,0,0,0,0,0
						c0.7,0,1.4,0.2,2.1,0.5c0.8,0.4,1.4,1,1.9,1.7c0.9,1.5,1,3.4,0,4.9c-2.4,4-6.5,8.7-8.1,10.3c12.4,1.1,19,6.2,21.3,8.4
						c0.4,0.3,0.6,0.7,0.7,1.2c0.1,0.5,0.2,0.9,0.1,1.4c-0.1,0.6-0.5,1.2-1,1.6c-0.6,0.5-1.4,0.7-2.2,0.5c-4.3-0.7-8.5-1-11-1.1
						c5,2.3,8.6,5.1,10.4,6.6c0.4,0.3,0.7,0.7,0.9,1.1c0.5,0.9,0.7,1.9,0.5,2.8c-0.1,0.9-0.5,1.6-1.1,2.3c-0.6,0.6-1.4,1.1-2.2,1.2
						l-1.9,0.4l0,0c0.6,0.3,1.1,0.7,1.5,1.3c0.4,0.8,0.6,1.7,0.3,2.5c-0.2,0.6-0.5,1.1-1,1.5c-0.5,0.4-1,0.7-1.7,0.8
						c-3,0.4-7.8,0.4-10.4,0.4l4.4,2.3c0.4,0.2,0.7,0.5,0.9,0.9c0.3,0.6,0.4,1.2,0.2,1.8c-0.1,0.4-0.4,0.8-0.7,1.1
						c-0.3,0.3-0.8,0.5-1.2,0.6c-0.7,0.1-1.5,0.2-2.2,0.3c-6.1,0.9-14.3,2.2-24,0.3c-11.9,17.2-35.1,36.9-52.5,50.4
						c-6.3,4.9-14,7.5-21.7,7.5C106.4,515.8,102.5,515.1,98.7,513.8z M184.4,457c9.6,1.9,17.9,0.6,23.9-0.3c0.8-0.1,1.5-0.2,2.3-0.3
						c0.3,0,0.6-0.2,0.8-0.4c0.2-0.2,0.4-0.4,0.5-0.7c0.1-0.4,0.1-0.8-0.2-1.2c-0.1-0.2-0.3-0.4-0.6-0.6l-6-3.2
						c-0.2-0.1-0.3-0.3-0.2-0.5c0.1-0.2,0.2-0.3,0.4-0.3c0.1,0,8,0.3,12.1-0.3c0.5-0.1,0.9-0.3,1.2-0.6c0.3-0.3,0.6-0.7,0.7-1.1
						c0.2-0.6,0.1-1.3-0.2-1.9c-0.3-0.4-0.6-0.8-1.1-1l-1.2-0.6c-0.2-0.1-0.3-0.2-0.2-0.4c0-0.2,0.2-0.3,0.3-0.4l3.2-0.6
						c0.7-0.1,1.3-0.5,1.8-1c0.5-0.5,0.8-1.1,0.9-1.8c0.1-0.8,0-1.6-0.4-2.3c-0.2-0.3-0.4-0.6-0.7-0.9c-2-1.7-6.2-5-12.3-7.4
						c-0.2-0.1-0.3-0.3-0.3-0.5c0-0.2,0.2-0.3,0.4-0.3c0.1,0,6.7,0,13.4,1.1c0.5,0.1,1.1,0,1.5-0.4c0.4-0.3,0.6-0.7,0.7-1.1
						c0.1-0.3,0.1-0.7,0-1c-0.1-0.3-0.3-0.6-0.5-0.8c-2.3-2.2-9-7.3-21.7-8.2c-0.2,0-0.3-0.1-0.4-0.3c-0.1-0.2,0-0.3,0.1-0.4
						c0.1-0.1,5.6-6,8.5-10.9c0.8-1.2,0.8-2.8,0-4c-0.4-0.6-0.9-1.1-1.5-1.4c-0.5-0.3-1.1-0.4-1.7-0.4c0,0,0,0,0,0
						c-0.9,0-1.7,0.3-2.4,0.9c-2.5,2-6.4,4.7-10.6,5.7c-6.4,1.5-51.3,38.6-51.7,39c-0.1,0.1-0.3,0.1-0.5,0c-0.2-0.1-0.2-0.2-0.2-0.4
						l3.6-29l-60.7-2.2l-9.2,60.5c-2.5,16.5,7.1,32.4,22.9,37.8c11.1,3.8,23.2,1.8,32.5-5.4c17.4-13.6,40.6-33.3,52.4-50.5
						C184,457,184.2,457,184.4,457C184.3,457,184.4,457,184.4,457z"/>
				</g>
			</g>
		</g>
		<g>
			<g>
				<g>
					<path class="st5" d="M213.6,442.5c0.2,0,0.4-0.1,0.4-0.3c0-0.2-0.1-0.4-0.3-0.5c-6.2-1.2-9.9-1.6-9.9-1.6
						c-0.2,0-0.4,0.1-0.5,0.4c0,0.2,0.1,0.4,0.4,0.5C203.7,440.9,207.4,441.3,213.6,442.5C213.6,442.5,213.6,442.5,213.6,442.5z"/>
				</g>
			</g>
		</g>
		<g>
			<g>
				<g>
					<path class="st5" d="M116.4,466.3c0.1,0,0.2,0,0.2-0.1c0.1-0.1,9.7-6.4,26.6-19.9c0.2-0.1,0.2-0.4,0.1-0.6
						c-0.1-0.2-0.4-0.2-0.6-0.1c-16.8,13.5-26.4,19.8-26.5,19.9c-0.2,0.1-0.2,0.4-0.1,0.6C116.1,466.3,116.2,466.3,116.4,466.3z"/>
				</g>
			</g>
		</g>
		<g>
			<g>
				<g>
					<path class="st5" d="M231.2,269.3c0.9-3.5-0.8-4.4-0.8-4.4c1.8-1.4,1.2-3.8-4.2-2c-5.4,1.8-8.2,7-8.2,7L231.2,269.3z"/>
				</g>
			</g>
			<g>
				<g>
					<path class="st6" d="M228.5,265.4c6.4,5.2,5.2,15.9,3.8,17.7c-5,3.6-14.6,3.5-17.2,0.3c-1.2-7.1,1.5-12.5,4.9-15.6
						C223,265.4,226.3,264.4,228.5,265.4z"/>
				</g>
			</g>
			<g>
				<defs>
					<path id="SVGID_00000054242537134597762470000010931575239794594189_" d="M228.5,265.4c6.4,5.2,5.2,15.9,3.8,17.7
						c-5,3.6-14.6,3.5-17.2,0.3C212.9,270.6,223.7,263.2,228.5,265.4z"/>
				</defs>
				<clipPath id="SVGID_00000031168091816940561280000004039876946861856649_">
					<use xlink:href="#SVGID_00000054242537134597762470000010931575239794594189_"  style="overflow:visible;"/>
				</clipPath>
				<g style="clip-path:url(#SVGID_00000031168091816940561280000004039876946861856649_);">
					<g>
						<ellipse class="st5" cx="228.5" cy="281.1" rx="7.3" ry="10.7"/>
					</g>
				</g>
			</g>
			<g>
				<g>
					<g>
						<path class="st5" d="M215.2,283.9C215.2,283.9,215.2,283.9,215.2,283.9c0.3,0,0.5-0.3,0.4-0.5c-1-5.9,0.8-11.6,4.8-15.2
							c2.7-2.4,5.9-3.3,7.9-2.4c0.2,0.1,0.5,0,0.6-0.2c0.1-0.2,0-0.5-0.2-0.6c-2.4-1.1-5.9-0.1-8.9,2.5c-4.3,3.8-6.2,9.7-5.1,16
							C214.8,283.7,215,283.9,215.2,283.9z"/>
					</g>
				</g>
			</g>
		</g>
		<g>
			<g>
				<g>
					<path class="st5" d="M263.5,261.6c0.8-3.5-0.7-4.4-0.7-4.4c1.6-1.4,1.1-3.8-3.7-2c-4.8,1.8-7.3,7-7.3,7L263.5,261.6z"/>
				</g>
			</g>
			<g>
				<g>
					<path class="st6" d="M261.1,257.7c5.7,5.2,4.6,15.9,3.4,17.7c-4.5,3.6-13,3.5-15.3,0.3c-1.1-7.1,1.3-12.5,4.4-15.6
						C256.2,257.7,259.2,256.7,261.1,257.7z"/>
				</g>
			</g>
			<g>
				<defs>
					<path id="SVGID_00000122689857721645254370000003317607206073030073_" d="M261.1,257.7c5.7,5.2,4.6,15.9,3.4,17.7
						c-4.5,3.6-13,3.5-15.3,0.3C247.2,262.9,256.8,255.5,261.1,257.7z"/>
				</defs>
				<clipPath id="SVGID_00000181082952525348650810000002317332299231158937_">
					<use xlink:href="#SVGID_00000122689857721645254370000003317607206073030073_"  style="overflow:visible;"/>
				</clipPath>
				<g style="clip-path:url(#SVGID_00000181082952525348650810000002317332299231158937_);">
					<g>
						<path class="st5" d="M253.9,271.8c0,5.9,2.9,10.7,6.5,10.7c3.6,0,6.5-4.8,6.5-10.7S264,261,260.4,261
							C256.8,261,253.9,265.8,253.9,271.8z"/>
					</g>
				</g>
			</g>
			<g>
				<g>
					<g>
						<path class="st5" d="M249.2,276.2C249.2,276.2,249.3,276.2,249.2,276.2c0.3,0,0.5-0.3,0.4-0.5c-0.9-5.9,0.7-11.6,4.3-15.2
							c2.4-2.4,5.2-3.3,7-2.4c0.2,0.1,0.5,0,0.6-0.2c0.1-0.2,0-0.5-0.2-0.6c-2.1-1.1-5.3-0.1-8,2.5c-3.8,3.8-5.5,9.7-4.5,15.9
							C248.8,276,249,276.2,249.2,276.2z"/>
					</g>
				</g>
			</g>
		</g>
		<g>
			<g>
				<g>
					<path class="st4" d="M254.1,285.8c4.1-2.7,4.8-7.8,3.1-10.8c-1.5-1.8-6.4,0.2-6.4,0.2s-1.8-3.2-1.9-5
						C241.6,276.3,238.3,294.3,254.1,285.8z"/>
				</g>
			</g>
			<g>
				<g>
					<path class="st11" d="M254.3,285.8c2.4-1.8,4.9-9.7,2.6-10.7c-2.3-1-13.6,8.9-12,11.4C246.7,288.9,251.1,288.4,254.3,285.8z"/>
				</g>
			</g>
			<g>
				<g>
					<g>
						<path class="st5" d="M246.8,287c0.3-0.1,0.5-0.4,0.4-0.8c-0.1-0.3,0.1-0.6,0.3-0.8c0.5-0.5,1.5-0.9,2.4-0.7
							c0.3,0.1,0.7-0.2,0.7-0.5c0.1-0.3-0.2-0.7-0.5-0.7c-1.2-0.2-2.7,0.2-3.6,1.1c-0.5,0.6-0.8,1.3-0.6,1.9
							C246.1,286.9,246.4,287.1,246.8,287z"/>
					</g>
				</g>
			</g>
			<g>
				<g>
					<g>
						<path class="st5" d="M254.3,286.4c0.1,0,0.1,0,0.2-0.1c4.4-2.9,5.1-8.3,3.3-11.7c-1.5-1.8-5.2-0.8-6.7-0.2
							c-0.6-1.1-1.5-3.1-1.5-4.3c0-0.3-0.3-0.6-0.6-0.6c-0.3,0-0.6,0.3-0.6,0.6c0.1,2,1.9,5.2,2,5.3c0.2,0.3,0.5,0.4,0.8,0.3
							c1.7-0.7,4.8-1.4,5.7-0.4c1.5,2.8,0.7,7.5-3,9.9c-0.3,0.2-0.4,0.6-0.2,0.9C253.7,286.4,254,286.5,254.3,286.4z"/>
					</g>
				</g>
			</g>
		</g>
		<g>
			<g>
				<polygon class="st6" points="75.5,397.7 150.7,402.5 149.6,417.5 69.2,415 				"/>
			</g>
		</g>
		<g>
			<g>
				<g>
					<path class="st5" d="M153.1,384.9c0.2,0,0.4-0.2,0.4-0.4c0-0.3,0.1-26-23.2-34.4c-0.2-0.1-0.5,0-0.5,0.3
						c-0.1,0.2,0,0.5,0.3,0.5c22.7,8.1,22.6,33.3,22.6,33.6C152.7,384.7,152.9,384.9,153.1,384.9
						C153.1,384.9,153.1,384.9,153.1,384.9z"/>
				</g>
			</g>
		</g>
		<g>
			<g>
				<path class="st5" d="M252.6,389.9c-0.3,0-0.5-0.2-0.5-0.5c0-0.1-0.1-10.1-7.9-25.4c-0.1-0.2,0-0.6,0.2-0.7
					c0.2-0.1,0.6,0,0.7,0.2c7.9,15.5,8,25.5,8,25.9C253.1,389.7,252.9,389.9,252.6,389.9L252.6,389.9z"/>
			</g>
		</g>
		<g>
			<g>
				<g>
					<g>
						<path class="st11" d="M165.2,298.2c0.1,6.8,5.8,12.3,12.6,12.1c6.8-0.1,12.3-5.8,12.1-12.6c-0.1-6.8-5.8-12.3-12.6-12.1
							C170.5,285.7,165.1,291.3,165.2,298.2z"/>
					</g>
				</g>
			</g>
			<g>
				<g>
					<g>
						<g>
							<path class="st5" d="M183,303.7c0.2,0,0.3-0.1,0.5-0.2c2.8-2.9,2.7-7.5-0.2-10.3c-2.9-2.8-7.5-2.7-10.3,0.2
								c-0.3,0.3-0.2,0.7,0,1c0.3,0.3,0.7,0.2,1,0c2.3-2.3,6-2.4,8.3-0.2c2.3,2.3,2.4,6,0.2,8.3c-0.3,0.3-0.2,0.7,0,1
								C182.7,303.7,182.9,303.7,183,303.7z"/>
						</g>
					</g>
				</g>
			</g>
			<g>
				<g>
					<g>
						<g>
							<path class="st5" d="M179.2,301.2c0.2,0,0.4-0.1,0.5-0.2c0.2-0.3,0.2-0.7-0.1-0.9c-0.6-0.5-0.9-1.2-1-2
								c-0.1-0.8,0.2-1.5,0.7-2.1c0.5-0.6,1.2-0.9,2-1c0.8-0.1,1.5,0.2,2.1,0.7c0.3,0.2,0.7,0.2,0.9-0.1c0.2-0.3,0.2-0.7-0.1-0.9
								c-0.9-0.7-2-1.1-3.1-1c-1.1,0.1-2.1,0.6-2.9,1.5c-0.7,0.9-1.1,2-1,3.1c0.1,1.1,0.6,2.1,1.5,2.9
								C178.9,301.1,179.1,301.2,179.2,301.2z"/>
						</g>
					</g>
				</g>
			</g>
		</g>
		<g>
			<g>
				<g>
					<path class="st5" d="M251.3,300.1c1.5-0.4,3.1-1.4,4.7-2.9c0.2-0.2,0.2-0.5,0-0.7c-0.2-0.2-0.5-0.2-0.7,0
						c-3.9,3.6-6.9,3.8-11,0.7c-4.7-3.6-10.5-1.7-12.5-0.2c-0.2,0.2-0.2,0.4-0.1,0.6c0.2,0.2,0.4,0.2,0.7,0.1
						c1.5-1.1,6.9-3.1,11.3,0.2C246.5,300,248.9,300.7,251.3,300.1z"/>
				</g>
			</g>
		</g>
		<g>
			<g>
				<g>
					<path class="st5" d="M233,299.3c0,0,0.1,0,0.1-0.1c0.2-0.1,0.3-0.4,0.2-0.6c0-0.1-0.8-1.3-2.5-2.5c-0.2-0.2-0.5-0.1-0.7,0.1
						c-0.2,0.2-0.1,0.5,0.1,0.6c1.5,1.1,2.3,2.3,2.3,2.3C232.6,299.2,232.8,299.3,233,299.3z"/>
				</g>
			</g>
		</g>
	</g>
	<g>
		<g>
			<g>
				<g>
					<g>
						<g>
							<g>
								<g>
									<path class="st16" d="M598.9,290.8c45.6,4.1,87.8,22,100.1,30.9s51.6,77,51.6,77l-34.4,15.1l-34.4,126.5H457.7L407.6,398
										c0,0,35.8-66,41.3-70.1s89.6-32.5,89.6-32.5L598.9,290.8z"/>
								</g>
							</g>
						</g>
					</g>
				</g>
			</g>
		</g>
		<g>
			<g>
				<g>
					<g>
						<g>
							<g>
								<g>
									<path class="st6" d="M538.4,295.4l60.5-4.6c5.2,0.5,10.3,1.1,15.4,1.9l-1.9,3.7c-17.1,34.1-38.1,41.3-52.7,41.3
										c0,0,0,0,0,0c-2.3,0-4.7-0.2-7.1-0.6c-19.6-3-24.8-23.7-24.9-38.2C534.3,296.8,538.4,295.4,538.4,295.4z"/>
								</g>
							</g>
						</g>
					</g>
				</g>
			</g>
		</g>
		<g>
			<g>
				<g>
					<g>
						<g>
							<g>
								<g>
									<path class="st5" d="M457,540.6l-50.2-142.3c-0.1-0.2-0.1-0.4,0-0.6c1.5-2.7,35.9-66.2,41.5-70.4
										c5.5-4.1,86.4-31.5,89.8-32.7c0.1,0,0.1,0,0.2,0l60.5-4.6c0,0,0.1,0,0.1,0c46.4,4.2,88.4,22.3,100.5,31.1
										c12.4,8.9,50.2,74.4,51.8,77.2c0.1,0.2,0.1,0.4,0.1,0.6s-0.2,0.4-0.4,0.4l-34.1,15l-34.3,126.2c-0.1,0.3-0.4,0.5-0.7,0.5
										H457.7C457.4,541.1,457.2,540.9,457,540.6z M715.5,413.7c0.1-0.2,0.2-0.4,0.4-0.5l33.6-14.8c-4.2-7.3-39.5-67.8-50.9-76.1
										c-12-8.7-53.6-26.6-99.7-30.8l-60.3,4.6c-29.1,9.8-85,29.2-89.3,32.4c-4.2,3.2-28.5,46.7-40.9,69.6l49.9,141.5h223
										L715.5,413.7z"/>
								</g>
							</g>
						</g>
					</g>
				</g>
			</g>
		</g>
		<g>
			<g>
				<g>
					<g>
						<g>
							<g>
								<g>
									<g>
										<path class="st4" d="M738.1,404.1c24.8,41.7,37.7,95.2,40,109.9l0,0c0.7,4,0.2,7.9-1.3,11.4c-2,4.6-5.6,8.4-10.4,10.6
											l-5.5,2.4c-1.3,0.6-2.6,1-4,1.3c-1.4,0.3-2.8,0.4-4.2,0.4H547.6l1.8-51.8c30.2-6.9,119.6-29.8,119.6-29.8l-10.5-25.2
											C686.9,419.6,738.1,404.1,738.1,404.1z"/>
									</g>
								</g>
							</g>
						</g>
					</g>
				</g>
			</g>
			<g>
				<g>
					<g>
						<g>
							<g>
								<g>
									<g>
										<path class="st5" d="M721.3,473.9c0.2,0,0.5-0.1,0.6-0.3c0.2-0.3,0.2-0.8-0.2-1c-0.2-0.2-23.4-17.1-50-15.7
											c-0.4,0-0.7,0.4-0.7,0.8c0,0.4,0.4,0.7,0.8,0.7c26-1.4,48.8,15.3,49,15.4C721,473.9,721.1,473.9,721.3,473.9z"/>
									</g>
								</g>
							</g>
						</g>
					</g>
				</g>
			</g>
			<image style="overflow:visible;" width="36" height="38" xlink:href="2E3C2F37.png"  transform="matrix(1 0 0 1 743 503)">
			</image>
			<g>
				<g>
					<g>
						<g>
							<g>
								<g>
									<g>
										<path class="st5" d="M547,540.6c-0.1-0.1-0.2-0.3-0.2-0.5l1.8-51.8c0-0.3,0.2-0.6,0.6-0.7c28.3-6.4,109.7-27.2,118.8-29.6
											l-10.2-24.4c-0.2-0.4,0-0.8,0.4-1c28.1-13.6,79.2-29.1,79.7-29.3c0.3-0.1,0.7,0,0.9,0.3c25.8,43.4,38.2,97.9,40.1,110.1
											c0.7,4,0.2,8.1-1.4,11.8c-2.1,4.9-5.9,8.8-10.8,11l-5.5,2.4c-1.3,0.6-2.7,1-4.1,1.3c-1.4,0.3-2.9,0.5-4.3,0.5H547.6
											C547.4,540.9,547.2,540.8,547,540.6z M659.5,433.7l10.3,24.6c0.1,0.2,0.1,0.4,0,0.6c-0.1,0.2-0.3,0.3-0.5,0.4
											c-0.9,0.2-88.6,22.7-119.1,29.7l-1.8,50.5h204.4c1.3,0,2.7-0.1,4-0.4c1.3-0.3,2.6-0.7,3.8-1.2l5.5-2.4
											c4.5-2,8.1-5.6,10-10.2c1.5-3.5,1.9-7.3,1.3-11c-1.9-12.1-14.1-66-39.6-109.1C732.2,406.7,686,421,659.5,433.7z"/>
									</g>
								</g>
							</g>
						</g>
					</g>
				</g>
			</g>
		</g>
		<g>
			<g>
				<g>
					<g>
						<g>
							<g>
								<g>
									<path class="st4" d="M588.4,244l14.7,47.7c-13.8,27.5-30.9,37.8-48.8,35.1s-15.8-31.4-15.8-31.4l4.1-1.4l-0.9-15.6
										L588.4,244z"/>
								</g>
							</g>
						</g>
					</g>
				</g>
			</g>
		</g>
		<g>
			<g>
				<g>
					<g>
						<g>
							<g>
								<g>
									<path class="st11" d="M544.8,278.4c4.1,25,17.4,19.9,23.4-10.3C551.9,274.7,544.8,278.4,544.8,278.4z"/>
								</g>
							</g>
						</g>
					</g>
				</g>
			</g>
		</g>
		<g>
			<g>
				<g>
					<g>
						<g>
							<g>
								<g>
									<g>
										<path class="st5" d="M608.4,223.1c7.7-12.3,6-32.8-3-33c8.7-11.1-1.3-23.4-4-16.4c-1.5-7.4-26.6-22.3-21.9-14.5
											c-11.7-3.8-30.8-5.5-43.8-0.4c-13,5.1-37.4,25.3-33.2,26.8c4.3,1.5,5.3,1.5,5.3,1.5c-7.9,13-6.2,29.6,3.2,24
											c0.9,3.8,10.8,6.2,10.8,6.2l59.3,17.2L608.4,223.1z"/>
									</g>
								</g>
							</g>
						</g>
					</g>
				</g>
			</g>
			<g>
				<g>
					<g>
						<g>
							<g>
								<g>
									<g>
										<path class="st5" d="M581,235.3l-59.3-17.2c-1-0.2-9.1-2.2-11.1-5.8c-3.3,1.6-5.3,0.4-6.2-0.6c-3.9-3.9-2.8-15.1,2.2-24
											c-0.8-0.2-2.2-0.6-4.4-1.3c-0.6-0.2-1-0.7-1-1.3c-0.1-4.5,22.6-22.3,34.1-26.8c12.3-4.8,30.5-3.7,42.8-0.1
											c-0.1-0.4,0-0.8,0.2-1.2c0.6-0.9,1.9-0.6,2.3-0.5c4.8,1,17.7,9.6,20.8,15.6c0.7-0.8,1.6-1,2.1-1.1
											c1.7-0.1,3.5,1.3,4.7,3.7c1.8,3.4,2.4,9.3-1.5,14.9c2,0.5,3.7,1.9,4.9,4.2c3.6,6.6,3.3,20.1-2.6,29.7
											c-0.1,0.1-0.2,0.2-0.3,0.3l-27.2,11.5c-0.1,0-0.2,0.1-0.3,0.1C581.1,235.3,581,235.3,581,235.3z M610.4,194.5
											c-1.3-2.4-2.9-3.6-5-3.6c-0.3,0-0.5-0.2-0.7-0.4c-0.1-0.3-0.1-0.6,0.1-0.8c4.3-5.4,3.8-11.1,2.1-14.4
											c-0.9-1.8-2.2-2.9-3.3-2.9c-0.8,0-1.3,0.9-1.6,1.6c-0.1,0.3-0.4,0.5-0.8,0.5c-0.3,0-0.6-0.3-0.7-0.6
											c-0.9-4.3-10.8-11.8-17-14.8c-2.8-1.3-3.9-1.4-4-1.4c0,0-0.1,0.3,0.5,1.2c0.2,0.3,0.1,0.6-0.1,0.8
											c-0.2,0.2-0.5,0.3-0.8,0.2c-12.1-3.9-30.8-5.4-43.3-0.4c-13.4,5.3-33.7,23-33.2,25.4c4,1.4,5,1.4,5.1,1.4
											c0.3,0,0.5,0.1,0.6,0.4c0.1,0.2,0.1,0.5,0,0.7c-5.5,9.1-6.1,19.9-3,23.1c1.2,1.2,3,1.2,5.2-0.1c0.2-0.1,0.5-0.1,0.7,0
											c0.2,0.1,0.4,0.3,0.4,0.5c0.5,2.5,6.6,4.7,10.3,5.6l59.1,17.2l26.8-11.3C613.4,213.5,613.6,200.5,610.4,194.5z"/>
									</g>
								</g>
							</g>
						</g>
					</g>
				</g>
			</g>
			<g>
				<g>
					<g>
						<g>
							<g>
								<g>
									<g>
										<path class="st4" d="M588.5,226.2c-3.7-0.3-0.8-13-0.8-13c-9.6-5.7-10.5-16.9-11.5-17.2c-11.2,9.6-23.6,9.6-23.6,2.9
											c-14,10.8-29.7,18.8-20.1,1.6c-7,8.6-13.1,9.3-13.1,9.3c-0.6,4.8,2.2,13.6,1.6,23.4c-0.6,9.9,6.2,46.7,13.4,48.8
											c7.2,2.1,20.3,1,27.1-3.7c6.9-4.6,25.5-20.6,26-23.3C588,252.2,588.5,226.2,588.5,226.2z"/>
									</g>
								</g>
							</g>
						</g>
					</g>
				</g>
			</g>
			<g>
				<g>
					<g>
						<g>
							<path class="st5" d="M561.6,254c-15.9-0.9-29,2.9-29,2.9C536.4,265.4,547,269,561.6,254z"/>
						</g>
					</g>
				</g>
				<g>
					<g>
						<g>
							<path class="st22" d="M540.6,264c5.1-6.8,11.3-8.6,11.3-8.6l2.9-1.4c2.2,0,4.4,0,6.7,0.1C553,262.8,545.9,265.2,540.6,264z"
								/>
						</g>
					</g>
				</g>
				<g>
					<g>
						<g>
							<path class="st6" d="M534.6,256.5c3.9-0.9,12.9-2.7,23.7-2.5C549,259.6,540.2,259.6,534.6,256.5z"/>
						</g>
					</g>
				</g>
			</g>
			<image style="overflow:visible;" width="23" height="20" xlink:href="2E3C2F34.png"  transform="matrix(1 0 0 1 562 230)">
			</image>
			<image style="overflow:visible;" width="18" height="18" xlink:href="2E3C2F3C.png"  transform="matrix(1 0 0 1 521 230)">
			</image>
			<g>
				<g>
					<g>
						<g>
							<g>
								<g>
									<g>
										<path class="st5" d="M576.6,218.4c-9.7-2.4-26-1.1-26-1.1c2.1-4.1,7-6.1,8.3-6.1C574.1,211.7,576.6,218.4,576.6,218.4z"/>
									</g>
								</g>
							</g>
						</g>
					</g>
				</g>
			</g>
			<g>
				<g>
					<g>
						<g>
							<g>
								<g>
									<g>
										<path class="st5" d="M554.7,211.9c-3.7,2.4-4.3,5.3-4.3,5.3C548.7,214,551,211.5,554.7,211.9z"/>
									</g>
								</g>
							</g>
						</g>
					</g>
				</g>
			</g>
			<g>
				<g>
					<g>
						<g>
							<g>
								<g>
									<g>
										<g>
											<path class="st6" d="M570.7,226c-2.7-4-11.4-6.2-14.4-5c-3,1.2-3.7,4.8-3.4,6.6C554.2,230.4,565.2,235.8,570.7,226z"/>
										</g>
									</g>
								</g>
							</g>
						</g>
					</g>
				</g>
				<g>
					<defs>
						<path id="SVGID_00000007403747677302877630000016492506086695833486_" d="M570.7,226c-2.7-4-11.4-6.2-14.4-5
							c-3,1.2-3.7,4.8-3.4,6.6C554.2,230.4,565.2,235.8,570.7,226z"/>
					</defs>
					<use xlink:href="#SVGID_00000007403747677302877630000016492506086695833486_"  style="overflow:visible;fill:#FFFFFF;"/>
					<clipPath id="SVGID_00000116237054737035749030000003205217176050686611_">
						<use xlink:href="#SVGID_00000007403747677302877630000016492506086695833486_"  style="overflow:visible;"/>
					</clipPath>
					<g style="clip-path:url(#SVGID_00000116237054737035749030000003205217176050686611_);">
						<g>
							<g>
								<g>
									<g>
										<g>
											<g>
												<g>
													<path class="st5" d="M552.4,223.6c-0.3,2.6,1.4,5,3.8,5.3c2.4,0.3,4.7-1.6,5-4.3c0.3-2.6-1.4-5-3.8-5.3
														C554.9,219,552.7,221,552.4,223.6z"/>
												</g>
											</g>
										</g>
									</g>
								</g>
							</g>
						</g>
					</g>
				</g>
				<g>
					<g>
						<g>
							<g>
								<g>
									<g>
										<g>
											<path class="st5" d="M552.9,228.1C552.9,228.1,552.9,228.1,552.9,228.1c0.4-0.1,0.6-0.3,0.5-0.6c-0.2-1.5,0.3-4.9,3.1-6
												c2.8-1.1,11.2,1,13.7,4.8c0.2,0.3,0.5,0.3,0.8,0.2c0.3-0.2,0.3-0.5,0.2-0.8c-2.9-4.3-11.9-6.5-15.1-5.2
												c-3.3,1.3-4,5.1-3.7,7.2C552.4,227.9,552.6,228.1,552.9,228.1z"/>
										</g>
									</g>
								</g>
							</g>
						</g>
					</g>
				</g>
			</g>
			<g>
				<g>
					<g>
						<g>
							<g>
								<g>
									<g>
										<path class="st6" d="M539.4,225.8c-1.7-2.5-6.1-5.2-9.9-5.4c-2.9-0.1-5.5,1.3-6.3,5.5
											C528.9,232.3,536.2,233.9,539.4,225.8z"/>
									</g>
								</g>
							</g>
						</g>
					</g>
				</g>
			</g>
			<g>
				<defs>
					<path id="SVGID_00000107578574240784032160000017228997222928785303_" d="M539.4,225.8c-2.9-4.4-14.4-9.5-16.2,0.1
						C528.9,232.3,536.2,233.9,539.4,225.8z"/>
				</defs>
				<clipPath id="SVGID_00000146481344886100322240000015108508120345706918_">
					<use xlink:href="#SVGID_00000107578574240784032160000017228997222928785303_"  style="overflow:visible;"/>
				</clipPath>
				<g style="clip-path:url(#SVGID_00000146481344886100322240000015108508120345706918_);">
					<g>
						<g>
							<g>
								<g>
									<g>
										<g>
											<g>
												<path class="st5" d="M523.6,225.3c0.9,2.5,3.6,3.8,5.9,2.9c2.3-0.9,3.4-3.6,2.4-6.1c-0.9-2.5-3.6-3.8-5.9-2.9
													C523.7,220.1,522.6,222.8,523.6,225.3z"/>
											</g>
										</g>
									</g>
								</g>
							</g>
						</g>
					</g>
				</g>
			</g>
			<g>
				<g>
					<g>
						<g>
							<g>
								<g>
									<g>
										<path class="st5" d="M539.7,226.3C539.7,226.3,539.7,226.3,539.7,226.3c0.3-0.2,0.4-0.5,0.2-0.8
											c-1.7-2.6-6.3-5.5-10.3-5.6c-3.7-0.1-6.1,2-6.9,5.9c-0.1,0.3,0.1,0.6,0.4,0.6c0.3,0.1,0.6-0.1,0.6-0.4
											c0.8-4.3,3.6-5.1,5.8-5c3.7,0.1,7.9,2.8,9.4,5.1C539.1,226.3,539.4,226.4,539.7,226.3z"/>
									</g>
								</g>
							</g>
						</g>
					</g>
				</g>
			</g>
			<g>
				<g>
					<g>
						<g>
							<g>
								<g>
									<g>
										<path class="st5" d="M539.6,217.8c-7.9-4.9-16.5-3.5-18.1-2.7c6.1-6,14-2.8,14.7-2.8C538.4,213.1,539.6,217.8,539.6,217.8
											z"/>
									</g>
								</g>
							</g>
						</g>
					</g>
				</g>
			</g>
			<g>
				<g>
					<g>
						<g>
							<g>
								<g>
									<g>
										<path class="st4" d="M539.6,220.5c1.8,5.1-0.3,17.4-0.3,17.4s-4.6,6.2-4.6,7c0,0.8,6.1,6.5,6.7,6.5
											c0.6,0,10.4-4.9,10.4-4.9C552.9,243.3,545.5,214.4,539.6,220.5z"/>
									</g>
								</g>
							</g>
						</g>
					</g>
				</g>
			</g>
			<image style="overflow:visible;" width="18" height="15" xlink:href="2E3C2F3D.png"  transform="matrix(1 0 0 1 534 237)">
			</image>
			<g>
				<g>
					<g>
						<g>
							<g>
								<g>
									<g>
										<path class="st5" d="M541.4,252.1c0.4,0,0.7-0.3,0.7-0.7c0-0.4-0.3-0.7-0.6-0.7c-0.9-0.4-5.5-4.8-6.1-5.9
											c0.3-0.7,2.4-3.8,4.5-6.5c0.1-0.1,0.1-0.2,0.1-0.3c0.1-0.5,2.1-12.5,0.3-17.8c-0.1-0.4-0.6-0.6-0.9-0.5
											c-0.4,0.1-0.6,0.6-0.5,0.9c1.6,4.6-0.1,15.3-0.3,16.9c-4.7,6.3-4.7,7.1-4.7,7.3C534,245.9,540.3,252.1,541.4,252.1z"/>
									</g>
								</g>
							</g>
						</g>
					</g>
				</g>
			</g>
			<g>
				<g>
					<g>
						<g>
							<g>
								<g>
									<g>
										<path class="st5" d="M544.3,250.1c0.1,0,0.2,0,0.4-0.1c1.1-0.6,4.7-1.6,5.5-1.3c0.2,0.3,0.6,0.4,0.9,0.3
											c0.4-0.2,0.6-0.6,0.4-1c-0.1-0.2-0.3-0.5-0.8-0.7c-1.6-0.6-5.9,0.9-6.8,1.4c-0.4,0.2-0.5,0.6-0.3,1
											C543.8,250,544,250.1,544.3,250.1z"/>
									</g>
								</g>
							</g>
						</g>
					</g>
				</g>
			</g>
			<g>
				<image style="overflow:visible;" width="26" height="35" xlink:href="2E3C2F3F.png"  transform="matrix(1 0 0 1 586 217)">
				</image>
				<g>
					<g>
						<g>
							<g>
								<g>
									<g>
										<g>
											<path class="st5" d="M590.2,238.2c0.8-6.8,5.8-11.6,10.2-12.2c2.9-0.4,5.4,1,6.8,3.8c0.1,0.3,0,0.7-0.3,0.8
												c-0.3,0.1-0.7,0-0.8-0.3c-1.2-2.4-3.1-3.5-5.5-3.2c-1.8,0.3-3.8,1.4-5.4,3.2c3.4,0.5,5.4,3,5.7,5.4
												c0.2,1.8-0.7,4.2-3.8,5.1c-0.2,0.1-0.5,0.1-0.8,0.2c-0.3,0.1-0.7-0.1-0.7-0.5c-0.1-0.3,0.2-0.6,0.5-0.7
												c2.5-0.5,3.8-1.9,3.6-4c-0.2-2.1-2.2-4.3-5.4-4.4c-1.4,1.9-2.5,4.2-2.8,6.9c0,0.2-0.2,0.4-0.4,0.5c-0.1,0-0.2,0-0.3,0
												C590.5,238.8,590.2,238.5,590.2,238.2z"/>
										</g>
									</g>
								</g>
							</g>
						</g>
					</g>
				</g>
			</g>
			<g>
				<g>
					<g>
						<g>
							<g>
								<g>
									<g>
										<path class="st11" d="M543.2,269.7c1.9,0,4.7-0.3,7.6-1.8c0.4-0.2,0.5-0.6,0.3-1c-0.2-0.4-0.6-0.5-1-0.3
											c-4.3,2.3-8.7,1.5-8.8,1.5c-0.4-0.1-0.8,0.2-0.9,0.6c-0.1,0.4,0.2,0.8,0.6,0.9C541.1,269.6,542,269.7,543.2,269.7z"/>
									</g>
								</g>
							</g>
						</g>
					</g>
				</g>
			</g>
			<g>
				<g>
					<g>
						<g>
							<g>
								<g>
									<g>
										<path class="st5" d="M534.2,282.6c-8.1-2.3-14.5-40.4-13.9-49.6c0.3-5.4-0.4-10.4-1-14.8c-0.5-3.5-0.9-6.5-0.6-8.7
											c0-0.3,0.3-0.6,0.7-0.6c0.1,0,5.9-0.8,12.6-9c0.2-0.3,0.7-0.4,1-0.1c0.3,0.2,0.4,0.6,0.2,1c-3.7,6.7-2.8,8.3-2.5,8.6
											c1.6,1.4,9.6-2,21.5-11.2c0.2-0.2,0.5-0.2,0.8-0.1c0.3,0.1,0.4,0.4,0.4,0.7c0,1.5,0.7,2.6,2.2,3.3
											c3.9,1.8,12.3,0,20.2-6.8c0.2-0.2,0.5-0.2,0.7-0.1c0.6,0.2,0.8,0.8,1.3,2.5c1.1,3.5,3.4,10.6,10.3,14.8
											c0.4,0.2,0.5,0.7,0.3,1c-0.2,0.4-0.7,0.5-1,0.3c-7.4-4.5-9.8-12-11-15.6c-0.1-0.4-0.2-0.8-0.4-1.1
											c-8.3,6.8-16.8,8.4-21.1,6.4c-1.5-0.7-2.5-1.8-2.9-3.3c-5.4,4.1-18.6,13.5-22.3,10.3c-1.2-1-1.2-2.9,0-6
											c-4.5,4.2-8.2,5.4-9.6,5.7c-0.1,2,0.2,4.7,0.7,7.8c0.6,4.2,1.3,9.5,1,15.1c-0.7,10.4,6.5,46.2,12.9,48.1
											c7,2,19.8,0.9,26.5-3.6c2.1-1.4,5.3-3.9,9-6.9c0.3-0.3,0.8-0.2,1,0.1c0.3,0.3,0.2,0.8-0.1,1c-3.7,3.1-7,5.6-9.1,7
											c-4.8,3.2-12.5,4.8-19.3,4.8C539.5,283.6,536.5,283.3,534.2,282.6z"/>
									</g>
								</g>
							</g>
						</g>
					</g>
				</g>
			</g>
			<g>
				<g>
					<g>
						<g>
							<g>
								<g>
									<g>
										<path class="st7" d="M590.8,204.1c1.2,0,2.5-0.4,4-1.8c0.3-0.3,0.3-0.7,0-1c-0.3-0.3-0.7-0.3-1,0
											c-1.4,1.3-2.8,1.7-4.2,1.1c-3-1.2-5.2-6.1-5.4-9.9c0-0.4-0.4-0.7-0.8-0.7c-0.4,0-0.7,0.4-0.7,0.8
											c0.2,4.2,2.7,9.7,6.3,11.2C589.5,203.9,590.1,204.1,590.8,204.1z"/>
									</g>
								</g>
							</g>
						</g>
					</g>
				</g>
			</g>
			<g>
				<g>
					<g>
						<g>
							<g>
								<g>
									<g>
										<path class="st7" d="M561.1,190c4.8,0,11.8-4.4,15.7-7.5c0.3-0.3,0.4-0.7,0.1-1c-0.3-0.3-0.7-0.4-1-0.1
											c-5.8,4.6-13.4,8.4-16.6,6.8c-1.1-0.5-1.7-1.7-1.7-3.7c0-0.4-0.3-0.7-0.7-0.7s-0.7,0.3-0.7,0.7c0,2.5,0.8,4.2,2.5,5
											C559.4,189.9,560.2,190,561.1,190z"/>
									</g>
								</g>
							</g>
						</g>
					</g>
				</g>
			</g>
			<g>
				<g>
					<g>
						<g>
							<g>
								<g>
									<g>
										<path class="st7" d="M520.3,197.3c1.9,0,4.4-1,7.1-3c0.3-0.2,0.4-0.7,0.2-1c-0.2-0.3-0.7-0.4-1-0.2
											c-3.7,2.7-6.8,3.4-8.2,1.9c-1.8-2-0.2-7.6,5.3-13.5c0.3-0.3,0.3-0.8,0-1c-0.3-0.3-0.8-0.3-1,0c-6.5,6.9-7.6,13-5.4,15.5
											C518,196.9,519,197.3,520.3,197.3z"/>
									</g>
								</g>
							</g>
						</g>
					</g>
				</g>
			</g>
		</g>
		<g>
			<g>
				<g>
					<g>
						<g>
							<g>
								<g>
									<path class="st25" d="M365.6,528.9h303.9c2.2,0,4.3,0.6,6.1,1.6c3.7,2.1,6.2,6.1,6.2,10.7l0,0H378c-4.2,0-7.9-2.1-10.1-5.2
										C366.5,534,365.6,531.5,365.6,528.9L365.6,528.9z"/>
								</g>
							</g>
						</g>
					</g>
				</g>
			</g>
		</g>
		<g>
			<g>
				<g>
					<g>
						<g>
							<g>
								<g>
									<path class="st26" d="M518.6,393.4H336c-2.2,0-4.1,1.1-5.3,2.7c-1.2,1.7-1.6,3.9-0.8,6l47.6,126.7H579l-47.5-126.6
										c-0.8-2.2-2.2-4.1-3.9-5.6C525.1,394.6,522,393.4,518.6,393.4z"/>
								</g>
							</g>
						</g>
					</g>
				</g>
			</g>
		</g>
		<g>
			<g>
				<g>
					<g>
						<g>
							<g>
								<g>
									<path class="st25" d="M508.1,393.4H325.5c-2.2,0-4.1,1.1-5.3,2.7c-1.2,1.7-1.6,3.9-0.8,6L367,528.9h201.4l-47.5-126.6
										c-0.8-2.2-2.2-4.1-3.9-5.6C514.6,394.6,511.4,393.4,508.1,393.4z"/>
								</g>
							</g>
						</g>
					</g>
				</g>
			</g>
		</g>
		<g>
			<g>
				<g>
					<g>
						<g>
							<g>
								<g>
									<path class="st5" d="M642.9,440.9c0.2,0,4.9-0.1,16-7c10.6-6.6,76.8-28.3,79.4-29.1c0.7-0.1,4-0.7,12.7-5.5
										c0.4-0.2,0.5-0.6,0.3-1c-0.2-0.4-0.6-0.5-1-0.3c-9.2,5-12.1,5.3-12.2,5.3c-0.1,0-0.1,0-0.2,0c-2.8,0.9-68.8,22.5-79.8,29.3
										c-10.6,6.6-15.2,6.8-15.2,6.8c-0.4,0-0.7,0.3-0.7,0.7C642.2,440.6,642.5,440.9,642.9,440.9z"/>
								</g>
							</g>
						</g>
					</g>
				</g>
			</g>
		</g>
		<g>
			<g>
				<g>
					<g>
						<g>
							<g>
								<g>
									<path class="st5" d="M646.6,363.9c0.2,0,0.5-0.1,0.6-0.3c0.1-0.2,14.9-22,46.4-34.1c0.4-0.1,0.6-0.6,0.4-1
										c-0.1-0.4-0.6-0.6-1-0.4c-31.9,12.3-47,34.4-47.1,34.7c-0.2,0.3-0.1,0.8,0.2,1C646.3,363.9,646.4,363.9,646.6,363.9z"/>
								</g>
							</g>
						</g>
					</g>
				</g>
			</g>
		</g>
		<g>
			<g>
				<g>
					<g>
						<g>
							<g>
								<g>
									<path class="st5" d="M487.1,381.8c0.2,0,0.3-0.1,0.5-0.2c1.9-1.4,2.4-21.4,2.6-29.9c0-0.4-0.3-0.7-0.7-0.8
										c-0.5,0-0.7,0.3-0.8,0.7c-0.2,13.2-1,27.5-2,28.8c-0.3,0.2-0.4,0.7-0.1,1C486.6,381.7,486.8,381.8,487.1,381.8z"/>
								</g>
							</g>
						</g>
					</g>
				</g>
			</g>
		</g>
	</g>
	<g>
		<g>
			<g>
				<g>
					<g>
						<g>
							<path class="st27" d="M278,414c20.9,24.5,63.1,52.4,94.6,48c19.6-22.8-2.6-50.6-10.1-57.8c-28.3-4.6-46.3-7.5-55.5-16.1
								C303.3,393.6,294.6,404.1,278,414z"/>
						</g>
					</g>
				</g>
			</g>
			<g>
				<g>
					<g>
						<g>
							<g>
								<path class="st28" d="M320.3,413.4c1.4,12.9,8.7,25,21,31.9c11.2,6.2,22.9,11,34.1,12.9c-0.8,1.3-1.8,2.6-2.9,3.8
									c-31.5,4.4-73.7-23.5-94.6-48c16.7-9.8,25.3-20.4,29-25.8c3.6,3.4,8.6,5.8,15.1,7.9C320.2,401.7,319.7,407.6,320.3,413.4z"
									/>
							</g>
						</g>
					</g>
				</g>
			</g>
			<g>
				<g>
					<g>
						<g>
							<g>
								<path class="st27" d="M303.8,384.5c-3.8-5.6-5.1-13.1-4.1-23.8c-1.4-0.2-2.9,0-4.2,0.4c-2.9,0.9-5.3,3.2-6.3,6.3
									c-0.6,1.8-0.7,3.1-0.7,3.1c-4.5-9.5-14-13.6-14-13.6c0,0,0,0,0,0c0.6,1.3,2.8,5.9,5.2,13.2c0,0-3.3-2.9-7.9-12.2
									c-9.3,4.4-14.8,15.9-4.9,39.4c1.3,3.2,3.4,6.7,6,10.3C279.5,404.5,292.4,397.3,303.8,384.5z"/>
							</g>
						</g>
					</g>
				</g>
				<g>
					<g>
						<g>
							<g>
								<path class="st29" d="M303.8,384.5c-3.8-5.6-5.1-13.1-4.1-23.8c-1.4-0.2-2.9,0-4.2,0.4c-2.9,0.9-5.3,3.2-6.3,6.3
									c-0.6,1.8-0.7,3.1-0.7,3.1c-4.5-9.5-14-13.6-14-13.6c0,0,0,0,0,0c0.6,1.3,2.8,5.9,5.2,13.2c0,0-3.3-2.9-7.9-12.2
									c-9.3,4.4-14.8,15.9-4.9,39.4c1.3,3.2,3.4,6.7,6,10.3C279.5,404.5,292.4,397.3,303.8,384.5z"/>
							</g>
						</g>
					</g>
				</g>
				<g>
					<g>
						<g>
							<g>
								<g>
									<g>
										<path class="st28" d="M299.4,367.3c-0.7,0.1-1.5,0.2-2.2,0.4c-2.9,0.9-5.3,3.2-6.3,6.3c-0.6,1.8-0.7,3.1-0.7,3.1
											c-3.4-7.3-9.8-11.4-12.6-12.9c-1.5-3.9-2.7-6.4-3.1-7.3c0,0,0,0,0,0c0,0,9.6,4.1,14,13.6c0,0,0.2-1.2,0.7-3.1
											c1-3.1,3.4-5.4,6.3-6.3c1.3-0.4,2.7-0.6,4.2-0.4C299.5,363,299.4,365.2,299.4,367.3z"/>
									</g>
								</g>
							</g>
						</g>
					</g>
					<g>
						<g>
							<g>
								<g>
									<g>
										<path class="st28" d="M275,363.7c-7.2,3.8-13.1,12.7-10.2,28c-6.8-19.8-1.4-29.8,7-33.8C273,360.2,274.1,362.1,275,363.7z
											"/>
									</g>
								</g>
							</g>
						</g>
					</g>
				</g>
				<g>
					<g>
						<g>
							<g>
								<path class="st19" d="M272.7,407.8c-2.7-3.7-4.7-7.2-6-10.4c-11.4-27.2-1.7-36.7,5-39.9c0.2-0.1,0.4,0,0.4,0.2
									c3,6.1,5.5,9.4,6.8,11c-2.2-6.5-4.1-10.6-4.7-11.7c0-0.1,0-0.2,0-0.3c0-0.1,0.1-0.2,0.2-0.2c0.1,0,0.2,0,0.2,0
									c0.1,0,9.1,4,13.8,12.9c0.1-0.5,0.3-1.3,0.6-2.1c1-3.1,3.4-5.6,6.5-6.5c1.4-0.4,2.9-0.6,4.3-0.4c0.2,0,0.3,0.2,0.3,0.4
									c-1,10.6,0.2,18.1,4,23.6c0.1,0.1,0.1,0.3,0,0.4c-11.4,12.9-24.3,20.1-31,23.2c-0.1,0-0.1,0-0.2,0
									C272.8,407.9,272.7,407.9,272.7,407.8z M299.4,361c-1.3-0.1-2.5,0-3.7,0.4c-2.9,0.9-5.2,3.2-6.1,6.1c-0.5,1.8-0.7,3-0.7,3
									c0,0.1-0.1,0.3-0.3,0.3c-0.1,0-0.3-0.1-0.3-0.2c-3.6-7.7-10.7-11.9-13.1-13.1c0.9,1.9,2.8,6.2,4.8,12.4c0,0.1,0,0.3-0.1,0.4
									c-0.1,0.1-0.3,0.1-0.4,0c-0.1-0.1-3.3-3-7.8-12c-6.5,3.2-15.5,12.5-4.4,38.9c1.3,3.1,3.2,6.4,5.8,10
									c6.7-3.2,19.2-10.3,30.3-22.7C299.7,379,298.4,371.5,299.4,361z"/>
							</g>
						</g>
					</g>
				</g>
				<g>
					<g>
						<g>
							<g>
								<path class="st19" d="M272.3,376.4c0.1,0,0.2,0,0.3-0.1c0.1-0.1,0.2-0.3,0.1-0.5c-4.2-5.7-5.5-14.2-5.5-14.3
									c0-0.2-0.2-0.3-0.4-0.3c-0.2,0-0.3,0.2-0.3,0.4c0,0.1,1.3,8.7,5.6,14.6C272.1,376.4,272.2,376.4,272.3,376.4z"/>
							</g>
						</g>
					</g>
				</g>
				<g>
					<g>
						<g>
							<g>
								<path class="st19" d="M265.8,379.5c0.1,0,0.2,0,0.2,0c0.2-0.1,0.2-0.3,0.1-0.4c-2.8-4.9-3.5-9.1-3.5-9.1
									c0-0.2-0.2-0.3-0.4-0.3c-0.2,0-0.3,0.2-0.3,0.4c0,0.2,0.8,4.3,3.6,9.3C265.7,379.4,265.8,379.5,265.8,379.5z"/>
							</g>
						</g>
					</g>
				</g>
			</g>
			<g>
				<g>
					<g>
						<g>
							<path class="st19" d="M352.3,461.3c6.7,1.4,13.6,1.9,20.3,1c0.2,0,0.3-0.2,0.3-0.4c0-0.2-0.2-0.3-0.4-0.3
								c-32.8,4.5-74.6-25-94.1-47.6c16.2-9.6,24.8-19.9,28.6-25.4c6.8,6.1,18,9.2,32.8,12c0.2,0,0.3-0.1,0.4-0.3
								c0-0.2-0.1-0.3-0.3-0.4c-14.9-2.8-26.1-6-32.7-12.1c-0.1-0.1-0.2-0.1-0.3-0.1c-0.1,0-0.2,0.1-0.2,0.1
								c-3.7,5.4-12.3,15.9-28.9,25.7c-0.1,0-0.1,0.1-0.2,0.2c0,0.1,0,0.2,0.1,0.3c11,12.9,27.2,25.9,43.4,34.9
								C329.6,453.8,340.7,458.9,352.3,461.3z"/>
						</g>
					</g>
				</g>
			</g>
		</g>
		<g>
			<g>
				<g>
					<g>
						<path class="st27" d="M337.9,409.3c0.2,3.8-5.3,99.1,61.7,95.9c62-3,52.4-97.6,52.3-101.4L337.9,409.3z"/>
					</g>
				</g>
			</g>
		</g>
		<g>
			<g>
				<g>
					<g>
						<path class="st19" d="M361.3,492.2c-21.5-20.8-24.1-59.9-23.8-81.4c0-0.8,0-1.2,0-1.5c0-0.1,0-0.2,0.1-0.3
							c0.1-0.1,0.2-0.1,0.3-0.1l113.9-5.4c0.2,0,0.4,0.1,0.4,0.3c0,0.1,0,0.4,0.1,0.8c1.3,17.7,2.1,61.5-19,85.3
							c-8.6,9.7-19.9,14.9-33.7,15.6c-5.4,0.3-10.4-0.1-15.1-1.1C375.6,502.6,367.8,498.5,361.3,492.2z M338.3,409.7
							c0,0.3,0,0.7,0,1.1c-0.3,21.4,2.3,60.3,23.5,80.9c9.8,9.5,22.5,13.9,37.8,13.2c13.6-0.6,24.7-5.8,33.2-15.4
							c20.9-23.6,20.1-67.2,18.8-84.8c0-0.2,0-0.3,0-0.5L338.3,409.7z"/>
					</g>
				</g>
			</g>
		</g>
		<g>
			<g>
				<g>
					<g>
						<g>
							<path class="st28" d="M372.2,486.5c44.9-2.1,52.3-52.4,52.9-81.4l26.8-1.3c0.2,3.8,9.7,98.4-52.3,101.4
								c-21,1-34.8-7.7-44-20.2C360.6,486.3,366.1,486.8,372.2,486.5z"/>
						</g>
					</g>
				</g>
			</g>
		</g>
		<g>
			<g>
				<g>
					<g>
						<path class="st29" d="M378.2,446.9l-1.7-36.1l-6.5,0.3l1.7,36.1c-7.7,1.8-13.3,8.8-12.9,16.8c0.4,9.1,8.4,16.1,17.7,15.7
							c9.3-0.4,16.6-8.2,16.1-17.3C392.3,454.5,386.1,448,378.2,446.9z"/>
					</g>
				</g>
			</g>
		</g>
		<image style="overflow:visible;" width="25" height="25" xlink:href="AEB2D1DC.png"  transform="matrix(1 0 0 1 363 451)">
		</image>
		<g>
			<g>
				<g>
					<g>
						
							<ellipse transform="matrix(0.5166 -0.8562 0.8562 0.5166 -215.3184 545.4459)" class="st30" cx="375.4" cy="463.4" rx="7.8" ry="7.8"/>
					</g>
				</g>
			</g>
		</g>
		<image style="overflow:visible;" width="17" height="17" xlink:href="AEB2D1DB.png"  transform="matrix(1 0 0 1 273 375)">
		</image>
		<g>
			<g>
				<g>
					<g>
						<circle class="st30" cx="281.6" cy="383" r="5.1"/>
					</g>
				</g>
			</g>
		</g>
		<g>
			<g>
				<g>
					<g>
						
							<ellipse transform="matrix(0.9989 -4.764279e-02 4.764279e-02 0.9989 -18.9233 19.2754)" class="st29" cx="394.9" cy="406.6" rx="57" ry="6.9"/>
					</g>
				</g>
			</g>
		</g>
		<g>
			<g>
				<g>
					<g>
						<path class="st19" d="M343.3,412.3c2.8,0.6,6.7,1.1,11.5,1.4c10.8,0.8,25.2,0.8,40.4,0.1c0.2,0,0.4-0.2,0.3-0.4
							c0-0.2-0.2-0.4-0.4-0.3c-15.2,0.7-29.5,0.7-40.3-0.1c-12.1-0.9-16.5-2.5-16.6-3.7c-0.1-1.2,4.2-3.2,16.2-5.3
							c10.7-1.8,24.9-3.2,40.1-3.9c0.2,0,0.4-0.2,0.3-0.4c0-0.2-0.2-0.4-0.4-0.3c-15.2,0.7-29.5,2.1-40.2,3.9
							c-11.2,1.9-16.9,3.9-16.8,6C337.6,410.5,339.5,411.5,343.3,412.3z"/>
					</g>
				</g>
			</g>
		</g>
		<g>
			<image style="overflow:visible;" width="63" height="9" xlink:href="AEB2D1D4.png"  transform="matrix(1 0 0 1 365 402)">
			</image>
			<g>
				<g>
					<g>
						<g>
							
								<ellipse transform="matrix(0.9991 -4.220392e-02 4.220392e-02 0.9991 -16.7884 17.0882)" class="st30" cx="396.3" cy="406.2" rx="19.7" ry="2.3"/>
						</g>
					</g>
				</g>
			</g>
		</g>
		<g>
			<g>
				<g>
					<g>
						<g>
							<path class="st28" d="M402.8,427.8c0.1,1.4-1.3,2.6-3.1,2.7s-3.3-1-3.4-2.4c-0.1-1.4,1.3-2.6,3.1-2.7
								S402.8,426.4,402.8,427.8z"/>
						</g>
					</g>
				</g>
			</g>
		</g>
		<g>
			<g>
				<g>
					<g>
						<g>
							<path class="st27" d="M499.3,493.9c0.8-30.4-11.3-76.7-36.3-93.6c-28.2,3.7-30.1,37.3-29.4,47c17,21.2,27.8,34.5,28.9,46.4
								C468.6,492.3,481.4,490.3,499.3,493.9z"/>
						</g>
					</g>
				</g>
			</g>
			<g>
				<g>
					<g>
						<g>
							<g>
								<path class="st28" d="M469.1,467.6c7.2-10,9.6-23.1,5.3-35.7c-3.9-11.4-9.2-22.2-15.8-30.6c1.4-0.4,2.9-0.7,4.4-0.9
									c24.9,16.8,37,63.1,36.3,93.6c-18-3.6-30.7-1.6-36.8-0.2c-0.4-4.7-2.4-9.6-5.6-15.1C461.8,475.8,465.9,472,469.1,467.6z"/>
							</g>
						</g>
					</g>
				</g>
			</g>
			<g>
				<g>
					<g>
						<g>
							<g>
								<path class="st27" d="M462.5,498.3c-0.8,6.3-4.7,12.4-12.2,19.3c0.9,1,2,1.8,3.2,2.4c2.6,1.2,5.8,1.1,8.4-0.5
									c1.6-0.9,2.4-1.7,2.4-1.7c-2.9,9.5,1.3,18.5,1.3,18.5c0,0,0,0,0,0c0.4-1.3,1.8-5.9,4.7-12.6c0,0,0.5,4.1-2.1,13.5
									c9.3,2.8,20.4-1.9,28.3-24.7c1.1-3.1,1.8-6.8,2.3-11C492.2,499.6,478.6,496.5,462.5,498.3z"/>
							</g>
						</g>
					</g>
				</g>
				<g>
					<g>
						<g>
							<g>
								<path class="st27" d="M462.5,498.3c-0.8,6.3-4.7,12.4-12.2,19.3c0.9,1,2,1.8,3.2,2.4c2.6,1.2,5.8,1.1,8.4-0.5
									c1.6-0.9,2.4-1.7,2.4-1.7c-2.9,9.5,1.3,18.5,1.3,18.5c0,0,0,0,0,0c0.4-1.3,1.8-5.9,4.7-12.6c0,0,0.5,4.1-2.1,13.5
									c9.3,2.8,20.4-1.9,28.3-24.7c1.1-3.1,1.8-6.8,2.3-11C492.2,499.6,478.6,496.5,462.5,498.3z"/>
							</g>
						</g>
					</g>
				</g>
				<g>
					<g>
						<g>
							<g>
								<g>
									<g>
										<path class="st28" d="M454.7,513.2c0.6,0.4,1.2,0.8,1.8,1.1c2.6,1.2,5.8,1.1,8.4-0.5c1.6-0.9,2.4-1.7,2.4-1.7
											c-2.2,7.3-0.3,14.2,0.7,17.1c-1.4,3.7-2.2,6.2-2.4,7.1c0,0,0,0,0,0c0,0-4.1-8.9-1.3-18.5c0,0-0.9,0.8-2.4,1.7
											c-2.6,1.6-5.8,1.7-8.4,0.5c-1.2-0.5-2.3-1.3-3.2-2.4C452,516.1,453.4,514.7,454.7,513.2z"/>
									</g>
								</g>
							</g>
						</g>
					</g>
					<g>
						<g>
							<g>
								<g>
									<g>
										<path class="st28" d="M469.6,531.2c7.4,1.9,17.3-0.6,24.8-13.2c-7.7,18.2-17.8,21.9-26.3,19.3
											C468.8,534.9,469.3,532.9,469.6,531.2z"/>
									</g>
								</g>
							</g>
						</g>
					</g>
				</g>
				<g>
					<g>
						<g>
							<g>
								<path class="st19" d="M468.1,537.6c-0.2,0-0.3-0.2-0.2-0.4c1.7-6.2,2.1-10.1,2.2-12c-2.5,6-3.8,10.1-4.1,11.2
									c0,0.1-0.1,0.2-0.2,0.2c-0.1,0-0.2,0-0.3,0c-0.1,0-0.1-0.1-0.2-0.2c0-0.1-3.9-8.6-1.5-17.8c-0.4,0.3-1,0.7-1.7,1.1
									c-2.6,1.6-5.9,1.8-8.7,0.5c-1.3-0.6-2.4-1.4-3.3-2.5c-0.1-0.1-0.1-0.3,0-0.4c7.5-6.8,11.3-12.9,12.1-19.1
									c0-0.1,0.1-0.3,0.3-0.3c16.1-1.8,29.8,1.2,36.5,3.2c0.1,0,0.2,0.2,0.2,0.3c-0.5,4.3-1.3,8-2.3,11.1
									c-8.6,24.6-20.2,26.7-27.3,25.2C469,537.8,468.5,537.7,468.1,537.6z M462.8,498.6c-0.9,6.2-4.7,12.3-12,19.1
									c0.8,0.9,1.8,1.6,2.9,2.1c2.6,1.2,5.7,1,8.1-0.5c1.5-0.9,2.4-1.7,2.4-1.7c0.1-0.1,0.3-0.1,0.4,0c0.1,0.1,0.2,0.2,0.1,0.3
									c-2.3,7.7,0.1,15.1,1,17.5c0.6-1.9,2-6.1,4.4-11.8c0.1-0.1,0.2-0.2,0.3-0.2c0.1,0,0.2,0.1,0.3,0.3c0,0.2,0.4,4.2-2.1,13.4
									c6.7,1.9,18.8,0.9,27.7-24.6c1-3,1.8-6.6,2.3-10.7C491.8,499.8,478.5,496.9,462.8,498.6z"/>
							</g>
						</g>
					</g>
				</g>
				<g>
					<g>
						<g>
							<g>
								<path class="st19" d="M474.1,538.1c0.1,0,0.2,0,0.3-0.1c0-0.1,4.6-6.9,5.2-13.8c0-0.2-0.1-0.3-0.3-0.3
									c-0.2,0-0.3,0.1-0.3,0.3c-0.7,6.7-5.1,13.5-5.1,13.5c-0.1,0.1-0.1,0.3,0.1,0.4C474,538.1,474.1,538.1,474.1,538.1z"/>
							</g>
						</g>
					</g>
				</g>
				<g>
					<g>
						<g>
							<g>
								<path class="st19" d="M482.5,535c0.1,0,0.3,0,0.3-0.1c0.1-0.1,2.2-3.5,3.4-8.8c0-0.2-0.1-0.3-0.2-0.4c0,0,0,0,0,0
									c-0.2,0-0.3,0.1-0.4,0.2c-1.2,5.2-3.3,8.6-3.3,8.7c-0.1,0.1,0,0.3,0.1,0.4C482.4,535,482.4,535,482.5,535z"/>
							</g>
						</g>
					</g>
				</g>
			</g>
			<g>
				<g>
					<g>
						<g>
							<path class="st19" d="M462.5,494.1c0,0,0.1,0,0.1,0c6-1.5,18.7-3.4,36.6,0.2c0.1,0,0.2,0,0.3-0.1c0.1-0.1,0.1-0.1,0.1-0.2
								c0.4-16-2.8-35.4-8.5-52c-4.7-13.7-13.4-32.1-27.9-41.8c-0.1,0-0.1-0.1-0.2-0.1c-12.2,1.6-20.9,8.8-25.8,21.4
								c-3.6,9.2-4.3,19.7-3.9,25.9c0,0.2,0.2,0.3,0.3,0.3c0.2,0,0.3-0.2,0.3-0.3c-0.4-6.1,0.3-16.5,3.8-25.7
								c4.8-12.4,13.3-19.4,25.2-21c25.9,17.6,36.6,64.7,36,92.9c-17.5-3.5-30-1.6-36.2-0.2c-0.9-8.6-6.9-17.9-15.5-29.2
								c-0.1-0.1-0.3-0.2-0.4-0.1c-0.1,0.1-0.2,0.3-0.1,0.4c8.7,11.4,14.6,20.7,15.4,29.2c0,0.1,0.1,0.2,0.1,0.2
								C462.4,494,462.5,494.1,462.5,494.1z"/>
						</g>
					</g>
				</g>
			</g>
		</g>
		<g>
			<g>
				<g>
					<g>
						<path class="st27" d="M460.5,340.2c9.6-47.9-39.1-72-79.7-68.1c-40.6,3.9-62.2,38-58.2,55.6c3.9,17.7-11.1,18.5-13.2,22.9
							c-2.1,4.4,6.4,36.3,58.8,41.2C420.6,396.9,452.5,380.3,460.5,340.2z"/>
					</g>
				</g>
			</g>
		</g>
		<g>
			<g>
				<g>
					<g>
						<path class="st29" d="M323.4,333.5c-0.1-0.1-0.1-0.2-0.2-0.3c0-1.6-0.2-3.4-0.6-5.5c-1.7-7.6,1.4-18.2,8.6-28.2
							c24.6,3.3,64.2-11.6,81.9-4.7c19,7.3,38.3,47.2,8,58.3C390.8,364.2,337.6,363.6,323.4,333.5z"/>
					</g>
				</g>
			</g>
		</g>
		<image style="overflow:visible;" width="40" height="45" xlink:href="AEB2D1D7.png"  transform="matrix(1 0 0 1 370 305)">
		</image>
		<g>
			<g>
				<g>
					<g>
						<path class="st30" d="M403.5,318.1c-8.2-10.1-25.2-6.8-27.3,0.1c-1.2,11.1,4.9,24.7,4.9,24.7c6.1,1.9,13.8,0.3,13.8,0.3
							C404,329.8,403.5,318.1,403.5,318.1z"/>
					</g>
				</g>
			</g>
		</g>
		<image style="overflow:visible;" width="34" height="43" xlink:href="AEB2D1D5.png"  transform="matrix(1 0 0 1 325 305)">
		</image>
		<g>
			<g>
				<g>
					<g>
						<path class="st30" d="M331.1,317.5c5.5-9.3,18.6-6.1,20.7,0.3c1.7,10.3-1.9,22.8-1.9,22.8c-4.5,1.7-11.2-1.6-11.2-1.6
							C330.9,326.6,331.1,317.5,331.1,317.5z"/>
					</g>
				</g>
			</g>
		</g>
		<g>
			<g>
				<g>
					<g>
						<g>
							<path class="st28" d="M353.4,280.4c7.8-4.2,17-7.2,27.5-8.3c40.6-3.9,89.2,20.2,79.7,68.1c-7.4,36.9-35.1,53.9-80.4,52.5
								c55.1-6.2,68.8-41.2,62.9-70.4C437,292.6,395.1,263.7,353.4,280.4z"/>
						</g>
					</g>
				</g>
			</g>
		</g>
		<g>
			<g>
				<g>
					<g>
						<path class="st31" d="M372.1,281.3c-36.9,23.6-35.2,71.3-34.4,75.9C320.7,315.7,323.7,297.9,372.1,281.3z"/>
					</g>
				</g>
			</g>
		</g>
		<g>
			<g>
				<g>
					<g>
						<path class="st31" d="M383.5,416c-25.3,26-23,60.8-23,60.8c-14.8-28.7-14.3-60.8-14.3-60.8C368.3,419.5,383.5,416,383.5,416z"
							/>
					</g>
				</g>
			</g>
		</g>
		<g>
			<g>
				<g>
					<g>
						<path class="st19" d="M354.8,390.3c4.1,0.9,8.5,1.5,13.3,2c53.6,5.1,84.8-12.4,92.7-52c3.5-17.4-0.6-33.1-11.7-45.4
							c-15-16.6-41.9-25.7-68.4-23.1c-0.2,0-0.3,0.2-0.3,0.4c0,0.2,0.2,0.3,0.4,0.3c26.3-2.6,52.9,6.4,67.8,22.9
							c11,12.1,14.9,27.6,11.5,44.8c-7.8,39.2-38.8,56.5-92,51.4c-36.1-3.4-50.1-19.3-55.3-28.5c-3.4-6-3.9-10.8-3.2-12.2
							c0.6-1.1,2.2-2.1,4.1-3.2c4.8-2.8,12.1-7,9.2-20c0-0.2-0.2-0.3-0.4-0.3c-0.2,0-0.3,0.2-0.3,0.4c2.8,12.4-4,16.3-8.9,19.2
							c-2,1.2-3.7,2.2-4.3,3.5c-0.8,1.6-0.3,6.7,3.2,12.9C316.8,371.5,328.1,384.7,354.8,390.3z"/>
					</g>
				</g>
			</g>
		</g>
		<g>
			<g>
				<path class="st19" d="M362.2,369.1c-3.4,0-7.6-0.6-12-2.9c-0.3-0.2-0.4-0.5-0.3-0.8c0.2-0.3,0.5-0.4,0.8-0.3
					c9.3,4.8,18.1,1.9,18.1,1.8c0.3-0.1,0.6,0.1,0.8,0.4c0.1,0.3-0.1,0.7-0.4,0.8C369.1,368.2,366.3,369.1,362.2,369.1z"/>
			</g>
		</g>
	</g>
	<g>
		<g>
			<g>
				<path class="st4" d="M305.4,432.3c0.2-0.3,0.5-0.6,0.9-0.8c2.9-1.4,11-4.1,23.5-1c0,0-3.4-7.4-4.7-13.1
					c-0.4-1.6,0.2-3.2,1.4-4.2c0.6-0.5,1.3-0.8,2.1-0.9c0.7-0.1,1.4,0,2,0.2c0.9,0.3,1.7,0.9,2.2,1.8c1.6,2.5,4.4,6.3,8.1,8.6
					c0.8,0.5,1.8,1.3,2.8,2.3c3.5,3.4,5.8,7.6,6.9,12.1c1.9,7.4,0.4,15.6-4.6,22.1l0,0c-1.6,2.1-3.4,3.8-5.4,5.3
					c-7.7,5.6-18.1,6.7-27,2.2c-1.3-0.6-2.4-1.2-3.5-1.8c-0.3-0.2-0.6-0.4-0.8-0.7c-0.2-0.3-0.3-0.7-0.3-1.1c0-0.5,0.3-1,0.7-1.4
					c0.3-0.2,0.6-0.4,0.9-0.4l6.7-1.1c0,0-7.7-2.3-11.4-4.2c-0.5-0.2-0.9-0.6-1.2-1.1c-0.3-0.4-0.4-1-0.4-1.5c0-0.8,0.4-1.5,0.9-2
					c0.4-0.4,1-0.6,1.6-0.7l1.4-0.1l-2.8-1.6c-0.7-0.4-1.2-1-1.6-1.7c-0.3-0.7-0.5-1.5-0.3-2.3c0.1-0.9,0.6-1.7,1.2-2.3
					c0.3-0.3,0.7-0.5,1.1-0.7c2.6-1.1,7.7-2.8,14.1-3.1c0,0-6.3-2.1-13-3.1c-0.7-0.1-1.3-0.5-1.6-1c-0.3-0.4-0.5-1-0.4-1.6
					C305,433,305.2,432.6,305.4,432.3z"/>
			</g>
		</g>
		<g>
			<g>
				<g>
					<path class="st5" d="M313.5,467.2l-1.5-0.7c-0.7-0.4-1.4-0.7-2-1c-0.4-0.2-0.7-0.5-1-0.9c-0.2-0.4-0.3-0.8-0.3-1.3
						c0-0.6,0.3-1.3,0.8-1.7c0.3-0.3,0.7-0.5,1.2-0.5l4.9-0.8c-2.5-0.8-7.1-2.3-9.8-3.7c-0.6-0.3-1-0.7-1.3-1.2
						c-0.3-0.5-0.5-1.1-0.4-1.7c0-0.9,0.4-1.7,1.1-2.3c0.5-0.4,1.1-0.7,1.8-0.8l0,0l-1.7-1c-0.8-0.4-1.4-1.1-1.7-1.9
						c-0.4-0.8-0.5-1.6-0.4-2.5c0.2-1,0.6-1.9,1.4-2.5c0.4-0.3,0.8-0.6,1.2-0.7c2.2-0.9,6.5-2.4,12-3c-2.4-0.7-6.5-1.8-10.8-2.5
						c-0.8-0.1-1.5-0.6-1.9-1.2c-0.4-0.5-0.5-1.2-0.5-1.8c0-0.5,0.2-0.9,0.5-1.3v0c0.3-0.4,0.7-0.7,1.1-0.9
						c2.9-1.3,10.8-4.1,22.9-1.2c-0.9-2.1-3.3-7.8-4.4-12.4c-0.4-1.7,0.2-3.5,1.6-4.7c0.7-0.6,1.5-0.9,2.3-1c0.7-0.1,1.5,0,2.2,0.2
						c1,0.3,1.9,1,2.5,1.9c1.7,2.6,4.4,6.3,8,8.4c0.8,0.5,1.8,1.3,2.9,2.4c3.4,3.4,5.9,7.6,7,12.3c1.9,7.8,0.3,16-4.6,22.5
						c-1.6,2.1-3.4,3.9-5.5,5.4c-4.6,3.4-10.1,5.1-15.6,5.1C321.3,470.1,317.2,469.1,313.5,467.2z M328.7,412.7
						c-0.7,0.1-1.4,0.4-1.9,0.8c-1.1,0.9-1.6,2.4-1.3,3.8c1.3,5.5,4.6,12.9,4.7,13c0.1,0.1,0,0.3-0.1,0.4c-0.1,0.1-0.3,0.2-0.4,0.1
						c-12.3-3.1-20.3-0.4-23.2,1c-0.3,0.1-0.6,0.4-0.8,0.6l0,0c-0.2,0.3-0.3,0.6-0.3,0.9c0,0.5,0.1,0.9,0.3,1.3
						c0.3,0.5,0.8,0.8,1.3,0.8c6.7,1,13,3.1,13,3.1c0.2,0.1,0.3,0.3,0.3,0.5c0,0.2-0.2,0.4-0.4,0.4c-6.4,0.3-11.5,2.1-13.9,3.1
						c-0.3,0.1-0.7,0.3-0.9,0.6c-0.6,0.5-1,1.2-1.1,2c-0.1,0.7,0,1.4,0.3,2c0.3,0.6,0.8,1.2,1.4,1.5l2.8,1.6
						c0.2,0.1,0.2,0.3,0.2,0.5c0,0.2-0.2,0.3-0.4,0.3l-1.4,0.1c-0.5,0-1,0.2-1.3,0.6c-0.5,0.4-0.8,1.1-0.8,1.7
						c0,0.4,0.1,0.9,0.3,1.3c0.2,0.4,0.6,0.7,1,0.9c3.7,1.8,11.3,4.1,11.4,4.1c0.2,0.1,0.3,0.2,0.3,0.4c0,0.2-0.2,0.4-0.4,0.4
						l-6.7,1.1c-0.3,0-0.5,0.2-0.7,0.3c-0.3,0.3-0.5,0.7-0.5,1.1c0,0.3,0.1,0.6,0.2,0.8c0.1,0.2,0.4,0.5,0.6,0.6
						c0.6,0.3,1.3,0.7,2,1l1.4,0.7c8.6,4.3,18.8,3.5,26.6-2.2c2-1.5,3.8-3.2,5.3-5.2c4.7-6.2,6.4-14.2,4.5-21.7
						c-1.1-4.5-3.5-8.6-6.8-11.9c-1.1-1-2-1.8-2.8-2.3c-3.7-2.3-6.5-6-8.2-8.7c-0.5-0.7-1.2-1.3-2-1.6c-0.4-0.1-0.8-0.2-1.2-0.2
						C329,412.7,328.9,412.7,328.7,412.7z"/>
				</g>
			</g>
		</g>
		<g>
			<g>
				<g>
					<path class="st5" d="M321.9,452.2c0.2,0,0.4-0.1,0.4-0.3c0.1-0.2-0.1-0.5-0.3-0.5c0,0-3.7-0.8-9.9-1.7c-0.2,0-0.4,0.1-0.5,0.4
						c0,0.2,0.1,0.4,0.4,0.5C318.1,451.4,321.7,452.2,321.9,452.2C321.8,452.2,321.8,452.2,321.9,452.2z"/>
				</g>
			</g>
		</g>
	</g>
	<g>
		<g>
			<g>
				<path class="st6" d="M155.5,147.9c-35.1-16.1-50.4-57.6-34.3-92.7s57.6-50.4,92.7-34.3c32.3,14.8,47.8,51.1,37.6,84.1l15.5,16.8
					l-23.1-0.2C225.4,150.9,187.7,162.8,155.5,147.9z"/>
			</g>
		</g>
		<g>
			<g>
				<g>
					<path class="st5" d="M222.5,143.6c0.1-0.1,0.1-0.3,0-0.4c-0.1-0.2-0.4-0.3-0.6-0.1c-20,12.7-44.7,14.3-66.2,4.5
						c-24.3-11.1-40.2-35.6-40.5-62.3c0-0.3-0.2-0.5-0.5-0.5c-0.3,0-0.5,0.2-0.5,0.5c0.3,27.1,16.4,51.9,41,63.2
						c21.7,10,46.8,8.3,67.1-4.5C222.4,143.8,222.5,143.7,222.5,143.6z"/>
				</g>
			</g>
		</g>
		<g>
			<g>
				<g>
					<path class="st5" d="M267.4,122C267.4,122,267.4,122,267.4,122c0.1-0.2,0-0.4-0.1-0.5l-15.4-16.6c7.3-23.8,1.3-49.9-15.6-68.3
						c-0.2-0.2-0.5-0.2-0.7,0c-0.2,0.2-0.2,0.5,0,0.7c16.8,18.2,22.6,44.1,15.3,67.6c0,0.2,0,0.3,0.1,0.5l14.8,16l-22.1-0.2
						c-0.3,0-0.5,0.2-0.5,0.5c0,0.3,0.2,0.5,0.5,0.5l23.1,0.2C267.1,122.3,267.3,122.2,267.4,122z"/>
				</g>
			</g>
		</g>
		<g>
			<g>
				<g>
					<path class="st5" d="M214.2,21.1c0.1-0.2,0-0.5-0.2-0.6c-35.3-16.2-77.1-0.7-93.3,34.6c-0.1,0.2,0,0.5,0.2,0.6
						c0.2,0.1,0.5,0,0.6-0.2c16-34.8,57.3-50.1,92.1-34.1C213.8,21.5,214.1,21.4,214.2,21.1z"/>
				</g>
			</g>
		</g>
		<g>
			<g>
				<g>
					<path class="st15" d="M178.6,96.7c1-3.5,2.2-6.5,3.7-8.9c1.4-2.4,3.3-5.2,5.6-8.3c1.7-2.3,3-4.2,4-5.7c1-1.5,1.8-3.2,2.4-5
						c0.6-1.8,1-3.8,1-5.9v-0.1c0-3.7-0.9-6.5-2.8-8.6c-1.9-2-4.5-3-7.9-3c-3.4,0-6.1,1.3-8,3.8c-1.9,2.5-2.8,6.1-2.9,10.7v0.1
						h-13.1v-0.1c0.2-5.6,1.2-10.4,3.2-14.3c1.9-4,4.7-7,8.2-9c3.5-2.1,7.7-3.1,12.5-3.1c5,0,9.3,0.9,12.9,2.8
						c3.6,1.9,6.3,4.6,8.2,8.1c1.9,3.5,2.8,7.8,2.8,12.8v0.1c0,3-0.4,5.7-1.2,8.1c-0.8,2.4-1.7,4.5-2.9,6.3
						c-1.1,1.8-2.7,3.9-4.6,6.5c-2.1,2.7-3.8,5.1-5.1,7.2c-1.3,2.1-2.4,4.6-3.3,7.5c-0.9,2.9-1.3,6.3-1.3,10.2h-12.9
						C177.1,104.2,177.6,100.2,178.6,96.7z M176.8,118.8h13.6v13.6h-13.6V118.8z"/>
				</g>
			</g>
		</g>
	</g>
	<g>
		<g>
			<g>
				<path class="st6" d="M440.1,97.6c-13.2-31.9,2-68.3,33.8-81.5c31.9-13.2,68.3,2,81.5,33.8c12.1,29.3,0.2,62.5-26.5,77.9l0,20.4
					l-15-14.2C484,142,452.2,126.9,440.1,97.6z"/>
			</g>
		</g>
		<g>
			<g>
				<g>
					<path class="st5" d="M486.5,135.5c0.1-0.1,0.2-0.2,0.3-0.3c0-0.2-0.1-0.4-0.3-0.5c-20.8-3.9-38-17.8-46-37.3
						c-9.1-22-4.6-47.7,11.4-65.4c0.2-0.2,0.1-0.4,0-0.6c-0.2-0.2-0.4-0.1-0.6,0c-16.3,17.9-20.8,43.9-11.6,66.3
						c8.2,19.8,25.6,33.9,46.6,37.8C486.4,135.5,486.5,135.5,486.5,135.5z"/>
				</g>
			</g>
		</g>
		<g>
			<g>
				<g>
					<path class="st5" d="M529,148.6C529,148.6,529,148.6,529,148.6c0.2-0.1,0.3-0.2,0.3-0.4l0-20.2c19.2-11.1,31.2-31.9,31.3-54.2
						c0-0.2-0.2-0.4-0.4-0.4c-0.2,0-0.4,0.2-0.4,0.4c-0.1,22.1-12,42.6-31.1,53.6c-0.1,0.1-0.2,0.2-0.2,0.4l0,19.4l-14.3-13.5
						c-0.2-0.2-0.4-0.2-0.6,0c-0.2,0.2-0.2,0.4,0,0.6l15,14.2C528.7,148.6,528.9,148.7,529,148.6z"/>
				</g>
			</g>
		</g>
		<g>
			<g>
				<g>
					<path class="st5" d="M555.6,50.3c0.2-0.1,0.3-0.3,0.2-0.5c-13.2-32-50-47.3-82.1-34.1c-0.2,0.1-0.3,0.3-0.2,0.5
						c0.1,0.2,0.3,0.3,0.5,0.2c31.6-13.1,67.9,2,81,33.6C555.1,50.3,555.4,50.4,555.6,50.3z"/>
				</g>
			</g>
		</g>
		<g>
			<g>
				<g>
					<g>
						<g>
							<path class="st30" d="M488.8,61.6c-0.4,2.6-0.3,5.2,0.2,7.6l-6.8,3.1l4.4,9.7l6.9-3.1c1.5,2,3.4,3.7,5.6,5.1l-2.7,7.1l10,3.8
								l2.8-7.4c2.5,0.3,5,0.1,7.3-0.4l3.3,7.3l9.7-4.4l-3.4-7.5c1.8-1.5,3.4-3.2,4.8-5.3l7.8,2.9l3.8-10l-7.9-3
								c0.3-2.3,0.2-4.7-0.3-6.9l7.7-3.5l-4.4-9.7l-7.7,3.5c-1.4-1.8-3.1-3.5-5.1-4.8l2.9-7.8l-10-3.8l-2.9,7.6
								c-2.4-0.3-4.9-0.3-7.2,0.1l-3.3-7.3l-9.7,4.4l3.2,7.1c-2,1.5-3.8,3.3-5.2,5.4l-7.1-2.7l-3.8,10L488.8,61.6z M495.7,59.9
								c3-9.6,13.7-14.5,22.9-10.3c7.6,3.4,11.5,12.1,9.1,20.1c-3,9.6-13.7,14.5-22.9,10.3C497.1,76.5,493.2,67.8,495.7,59.9z"/>
						</g>
					</g>
				</g>
			</g>
			<g>
				<g>
					<g>
						<g>
							<path class="st30" d="M463.2,99.3c0.1,1.5,0.4,2.9,1,4.2l-3.5,2.5l3.5,4.9l3.5-2.5c1.1,0.9,2.3,1.7,3.7,2.2l-0.7,4.3l6,1
								l0.8-4.4c1.4-0.1,2.8-0.5,4.1-1l2.6,3.7l4.9-3.5l-2.7-3.8c0.9-1,1.6-2.2,2.1-3.5l4.7,0.8l1-6l-4.7-0.8
								c-0.1-1.3-0.4-2.6-0.9-3.9l3.9-2.8l-3.5-4.9l-3.9,2.8c-1-0.9-2.1-1.6-3.4-2.2l0.8-4.7l-6-1l-0.8,4.6c-1.4,0.1-2.8,0.4-4,0.9
								l-2.6-3.7l-4.9,3.5l2.6,3.6c-1,1-1.7,2.3-2.3,3.6l-4.3-0.7l-1,6L463.2,99.3z M469.4,97.9c0.4-4.1,4.4-6.9,8.4-6
								c3.3,0.8,5.6,4,5.2,7.4c-0.4,4.1-4.4,6.9-8.4,6C471.3,104.5,469.1,101.3,469.4,97.9z"/>
						</g>
					</g>
				</g>
			</g>
		</g>
	</g>
</g>
</svg>
